<?xml version="1.0" standalone="no"?>
<!DOCTYPE svg PUBLIC "-//W3C//DTD SVG 1.1//EN" "http://www.w3.org/Graphics/SVG/1.1/DTD/svg11.dtd" >
<svg xmlns="http://www.w3.org/2000/svg">
<metadata></metadata>
<defs>
<font id="braddonregular" horiz-adv-x="1228" >
<font-face units-per-em="2048" ascent="1638" descent="-410" />
<missing-glyph horiz-adv-x="512" />
<glyph horiz-adv-x="2048" />
<glyph horiz-adv-x="2048" />
<glyph unicode="&#xd;" horiz-adv-x="512" />
<glyph unicode=" "  horiz-adv-x="512" />
<glyph unicode="&#x09;" horiz-adv-x="512" />
<glyph unicode="&#xa0;" horiz-adv-x="512" />
<glyph unicode="!" horiz-adv-x="671" d="M123 84q0 113 268 113q61 0 117 -25q67 -31 67 -84q0 -59 -102 -88q-66 -18 -151 -18q-199 0 -199 102zM139 1393q0 55 228 55h24q127 0 127 -45q0 -23 -10 -82q-63 -365 -64 -639q0 -238 31 -305q14 -33 14 -41q0 -35 -67 -53q-45 -12 -96 -13q-150 0 -150 62 q0 59 8 145l9 86q2 23 2 62v213q0 16 2 34q4 295 -29 414q-8 29 -29 107z" />
<glyph unicode="&#x22;" horiz-adv-x="753" d="M109 1378l6 8l80 11h90q45 0 45 -23q0 -10 -11 -45q-25 -82 -24 -205v-106q0 -106 12 -174q-10 -18 -98 -19q-92 0 -92 21q0 61 6 153l6 93q2 31 2 63q0 61 -22 223zM422 1374l6 8q76 12 80 13q135 0 135 -23q0 -49 -18.5 -144t-18.5 -145v-67q0 -104 15 -176 q-16 -18 -99 -19q-94 0 -94 29q0 -18 14 246q2 39 2 63q0 66 -22 215z" />
<glyph unicode="#" horiz-adv-x="1523" d="M119 440q0 162 92 162q-16 0 135 -14q20 -2 35 -2l33 14q16 61 24 180q-14 14 -71 15q-20 0 -56.5 -3.5t-52.5 -3.5q-70 -2 -70 70q0 76 15 131q29 29 106 29h41q8 0 27 -2l74 -8l43 28l30 295q61 29 97 29q104 0 143 -21l10 -18q-4 -23 -67 -231q-14 -47 -21 -72l16 -14 l158 -5l86 5l19 174q12 123 24 159q53 29 101 29q102 0 141 -20l10 -19q-31 -180 -90 -291q27 -31 111 -30h59q10 0 20 2q70 0 70 -113q0 -27 -10 -84l-25 -23q-39 0 -115.5 6.5t-115.5 6.5l-23 -4q-29 -61 -45 -181q14 -31 99 -30q16 0 51 2t51 2q14 -4 43 -17 q20 -33 20 -96q0 -33 -10 -84l-24 -20q-35 0 -102.5 5t-102.5 5q-49 0 -68 -8l-16 -182q-10 -111 -35 -173q-55 -20 -113 -20h-24q-14 2 -41 10l-37 33q18 106 61 307l-28 29q-16 0 -50 2t-51 2h-92q-16 0 -41 -8q-14 -51 -22 -185q-6 -125 -29 -176q-55 -20 -115 -20 q-4 0 -65 10l-37 35l66 315l-33 23q-25 0 -75 -2t-75 -2q-63 0 -63 67zM610 612q0 -31 101 -30h100q47 0 63 18q8 10 23.5 79t15.5 87q0 37 -102 37h-104q-57 0 -64 -35q-33 -115 -33 -156z" />
<glyph unicode="$" horiz-adv-x="1024" d="M115 334q0 27 22.5 54.5t48.5 35.5q33 -8 144 -72q82 -47 164 -47q123 0 151 74q-23 49 -280 133q-225 74 -226 262q0 233 105 318q51 31 157 92q6 43 7 82q0 33 -2 53l-9 78q25 31 74 30q244 0 244 -127q0 -33 -13 -81l-20 -82q14 -25 76 -56q106 -53 106 -258 q0 -76 -22.5 -108.5t-96.5 -32.5q-82 0 -110 96q-6 20 -27 183q-12 96 -53 96q-59 0 -111 -117q-43 -98 -43 -172q0 -102 131 -164q63 -29 246 -110q131 -59 131 -129q0 -113 -241 -146q-41 -6 -41 -76q0 -20 6 -63t6 -64q0 -43 -168 -43q-88 0 -121 58q25 98 25 170l-15 28 q-246 39 -245 105z" />
<glyph unicode="%" horiz-adv-x="1439" d="M41 965q0 150 76 254q84 119 227 118l51 -6q123 -104 162 -129q92 -57 195 -57q152 0 229 47l117 129q37 -8 100.5 -64.5t73.5 -91.5q-12 -59 -340 -491l-160 -211l-258 -367l-16 -49q-12 -37 -27 -45q-61 14 -115.5 66.5t-72.5 113.5q16 72 143 267q55 86 244 331 l204 269q-121 -25 -180 -25q-45 0 -76 12q0 -346 -290 -346q-96 0 -191.5 89t-95.5 186zM256 918q0 -90 63 -91q70 0 115 91q37 74 37 151q0 121 -51 121q-14 0 -45 -23q-119 -86 -119 -249zM887 301q0 111 69 221q80 127 181 127q65 0 112 -121q25 -8 72 -43 q78 -100 78 -157q0 -98 -64 -187q-70 -98 -164 -98q-51 0 -104 41q-109 59 -129 80q-51 49 -51 137zM1090 279q0 -86 57 -86q47 0 70 71q16 51 16 113q0 23 -14.5 57.5t-32.5 34.5q-33 0 -66 -80q-30 -71 -30 -110z" />
<glyph unicode="&#x26;" horiz-adv-x="1024" d="M66 242q0 96 55 155q43 47 143 92q-176 64 -176 201q0 113 84 178q76 59 193 60q131 0 243 -62q141 -78 142 -192q0 -94 -93 -94q-84 0 -120 65q-10 18 -39 119q-18 66 -58 65q-43 0 -71 -55q-25 -47 -25 -96q0 -143 199 -143q150 0 149 -74l-10 -25l-174 -24 q-201 -29 -201 -176q0 -59 29 -101q33 -47 88 -47q49 0 85 41t36 90q0 25 -61.5 49.5t-61.5 36.5q0 45 156 66q92 12 188 12q55 0 115 -18q78 -25 77 -68q-12 -12 -67 -19.5t-57 -9.5q-41 -274 -336 -274q-164 0 -275 45q-158 63 -157 203z" />
<glyph unicode="'" horiz-adv-x="440" d="M109 1374l6 8q76 12 80 13q135 0 135 -23q0 20 -2 21q-8 -8 -25 -170q-8 -80 -8 -140v-69q0 -106 12 -174q-10 -18 -98 -19q-92 0 -92 21q0 63 6 155l6 93q2 31 2 63q0 59 -22 221z" />
<glyph unicode="(" horiz-adv-x="585" d="M41 426q0 340 123 791q63 233 127 233q115 0 174 -49l10 -33q-10 -31 -78 -156q-39 -70 -51 -135q-45 -229 -45 -649q0 -203 61 -465q14 -53 72 -276q-25 -51 -112 -95q-70 27 -89 37q-57 31 -69 60q-123 272 -123 737z" />
<glyph unicode=")" horiz-adv-x="587" d="M109 1376q20 86 104 105q227 -49 307 -658q27 -202 27 -352q0 -180 -58 -479q-74 -387 -167 -387q-53 0 -97 18q-55 23 -55 70q0 25 25 110q82 289 81 705q0 182 -22 399q-31 293 -80 377q-23 31 -65 92z" />
<glyph unicode="*" horiz-adv-x="479" d="M53 1141q0 33 33 47q25 14 37 20l12 6q-41 57 -41 76q0 27 26.5 50.5t53.5 23.5t45 -27l21 -28l26 29q27 28 43 28q29 0 52.5 -21.5t23.5 -50.5q0 -10 -25 -59q0 -2 32 -31.5t32 -48.5q0 -29 -19.5 -53.5t-48.5 -24.5q-16 0 -45 17q-6 -25 -14 -54q-14 -45 -61 -45 q-27 0 -39.5 26t-22.5 50l-4 10q-8 0 -26.5 -9t-26.5 -9q-25 0 -44.5 25.5t-19.5 52.5z" />
<glyph unicode="+" d="M209 684q0 98 108 98q25 0 73 -6t73 -6q41 0 55 12.5t14 51.5t-11 117.5t-11 119.5t141 41q31 0 60 -12q37 -16 37 -43q0 -18 -15 -195q-4 -51 -4 -45l4 -24q14 -20 58 -19l47 2h125q57 0 57 -94q0 -88 -96 -88q-23 0 -68 5t-68 5q-41 0 -52 -13t-11 -54q0 12 20 -203 q2 -20 3 -35q0 -37 -76 -37h-43q-78 0 -99 49l15 119v64q0 63 -15 100l-32 6q-35 0 -86 -10q-121 -25 -144 -25q-59 0 -59 119z" />
<glyph unicode="," horiz-adv-x="546" d="M129 154q0 104 141 104q146 0 146 -145q0 -80 -33 -146q-41 -82 -113 -82q-33 0 -32 27q0 10 6 30.5t6 30.5t-42 40t-48 40q-31 39 -31 101z" />
<glyph unicode="-" horiz-adv-x="716" d="M0 623q0 78 8 96q14 43 76 43q29 0 84 -5t84 -5q61 0 137 4l154 8q39 2 82 2q92 0 92 -125q0 -143 -51 -143q-31 0 -92.5 4t-92.5 4q-125 0 -264 -19q-20 -2 -75.5 -21.5t-78.5 -19.5q-63 0 -63 177z" />
<glyph unicode="." horiz-adv-x="546" d="M170 152q0 53 47 86q41 29 98 28q127 0 127 -160q0 -111 -137 -110q-135 0 -135 156z" />
<glyph unicode="/" horiz-adv-x="1089" d="M96 -109q0 51 236 576q180 406 282 616q195 401 232 418q110 -44 149 -112q-12 -72 -53 -152l-293 -571q-178 -348 -239 -492q-125 -291 -158 -459l-16 -12q-139 74 -140 188z" />
<glyph unicode="0" d="M63 602q0 215 82 469q106 332 267 332q31 0 161 -35q66 -13 269 -70l18 -6q23 -6 72 -18q147 -55 198 -193q35 -94 35 -286q0 -801 -452 -801q-356 0 -498 125q-152 133 -152 483zM342 508q0 -158 51 -270q68 -150 205 -150q176 0 266 274q66 201 66 429q0 164 -53 296 q-72 178 -215 179q-162 0 -252 -312q-68 -233 -68 -446z" />
<glyph unicode="1" d="M295 1137q35 57 202 181t222 124t98 -25q53 -29 53 -80q0 -90 -22 -342q-20 -229 -21 -342q0 -119 4 -229l15 -385q0 -27 -41 -41q-33 -12 -66 -12q-109 0 -204 22l-11 19q25 174 27 381l4 276v279q2 6 2 24q2 102 -33 125q-12 -2 -69 -43q-25 -17 -45 -25 q-100 23 -115 93z" />
<glyph unicode="2" d="M96 928q0 168 166 342t334 174q180 0 340 -80q197 -98 197 -260q0 -178 -146 -377q-82 -113 -282 -311q-172 -170 -193 -230q16 -35 170 -34h53q8 0 117 10l174 16l33 -14q0 -6 7 -21.5t7 -21.5q0 -70 -26.5 -98.5t-94.5 -28.5q-31 0 -30 0l-78 4q-39 2 -31 2 q-86 0 -383 -18q-164 -10 -231 -11q-33 0 -66 23l-18 47q31 131 223 334q98 100 336 370q174 211 174 406q0 156 -141 156q-197 0 -336 -244q-23 -39 -121 -221l-33 -13q-35 0 -78 33t-43 66z" />
<glyph unicode="3" d="M4 156q20 86 102 86q16 0 46 -29q84 -84 317 -84q133 0 297 82q193 96 192 217q0 178 -249 178q-61 0 -144 -24q-182 -55 -227 -56q-88 0 -88 125q0 12 3 37t3 37q0 41 78 51q129 16 325 156q217 154 218 268q0 94 -142 94q-266 0 -522 -188q-33 -25 -49 -25 q-37 0 -61.5 27t-24.5 63l12 27q66 47 242 156q139 78 274 78q168 0 326 -60q211 -80 211 -219q0 -90 -78 -186q-33 -41 -279 -228q137 -43 256 -127q156 -110 156 -221q0 -193 -209 -317q-182 -109 -385 -109q-164 0 -330 35q-236 49 -270 156z" />
<glyph unicode="4" d="M-10 393q0 68 10 92q6 16 31 41l35 35q84 84 227 268q133 186 409 551q25 31 127 47q76 12 140 13q109 0 108 -74q0 -49 -16 -129q-37 -180 -37 -225q0 -57 -12 -232q-10 -145 -11 -231q0 -47 11.5 -63.5t54.5 -16.5h37q55 0 74 -35q12 -25 12 -86l-27 -35q-23 -6 -43 -6 h-20q-10 0 -21 2l-41 4q-57 0 -57 -96v-24q0 -59 25 -191q-18 -41 -166 -41q-111 0 -135 33l16 129q8 66 8 127l-31 45l-39 4h-264q-51 0 -131 -14q-113 -20 -129 -21q-41 -6 -69 -6q-39 0 -60 51q-16 39 -16 84zM274 500q0 -33 54 -33h32q-59 0 162 -10q102 -4 150 12 q78 27 78 115v59q0 -35 14 309q2 49 2 82q0 61 -43 62q-12 0 -191 -244q-2 -4 -16 -23l-121 -155l-96 -129q-25 -25 -25 -45z" />
<glyph unicode="5" d="M55 147q20 70 82 70l205 -63q92 -29 145 -29q180 0 303 124t123 306q0 72 -42 118t-111 46q-131 0 -225 -80l-117 -98l-43 -6q-68 0 -139 32q-90 41 -91 95q0 90 35 268t35 268q0 35 -37 133q33 45 88 45q186 0 367 -12q266 -18 346 -47q14 -31 41 -94q-16 -35 -166 -35 h-37q-23 0 -66.5 3t-64.5 3q-213 2 -235 -115q-8 -127 -17 -225l23 -29q131 43 266 43q137 0 289 -116q162 -125 162 -258q0 -227 -191 -377q-176 -137 -410 -137q-410 0 -518 167z" />
<glyph unicode="6" d="M72 397q0 166 143 463q123 252 254 422q180 231 313 231q23 0 52.5 -19.5t37.5 -39.5q-70 -100 -135 -182q-209 -260 -239 -307l24 -27l307 -49q360 -57 361 -328q0 -238 -148 -401q-152 -170 -387 -170q-233 0 -389 86q-195 106 -194 321zM334 352q0 -250 209 -250 q184 0 293 154q96 135 96 328q0 96 -59.5 168.5t-153.5 72.5q-168 0 -281 -157q-104 -142 -104 -316z" />
<glyph unicode="7" d="M115 1278q0 82 159 96q23 2 111 2h111q25 0 198 6q117 4 199 4q184 0 250 -221q-45 -100 -154 -268q-31 -49 -211 -305l-157 -225l-154 -289q-57 -106 -72 -119q-29 -23 -63 -22q-63 0 -119 16q-82 25 -82 65q0 10 168 287l174 287q55 90 137 233q170 295 170 334t-71 39 q-12 0 -36 -2t-36 -2h-96q-10 0 -25 -2h-31q-303 0 -362 47q-8 23 -8 39z" />
<glyph unicode="8" d="M6 436q0 127 84 203l162 145q-86 158 -86 285q0 154 149 248q129 82 291 82q225 0 371 -86q178 -105 178 -314q0 -76 -49 -149q-10 -14 -105 -121q4 -12 129 -156q92 -106 93 -223q0 -190 -207 -301q-166 -88 -377 -88q-258 0 -428 107q-205 127 -205 368zM139 360 q0 -111 185 -165q129 -39 278 -39q162 0 295 59q170 76 170 219q0 104 -168 162q-127 43 -258 43q-160 0 -307 -64q-195 -84 -195 -215zM264 1004q0 -96 142 -140q94 -29 221 -28q125 0 233 36q152 52 152 148q0 98 -140 145q-102 35 -221 35q-131 0 -235 -37 q-152 -53 -152 -159z" />
<glyph unicode="9" d="M59 219l33 31l43 6q55 0 190.5 -93t215.5 -93q131 0 223 114q88 106 88 242l-27 23q-20 0 -100 -9q-59 -6 -98 -6q-223 0 -369 101q-168 115 -168 327q0 184 94 365q113 215 281 215q63 0 158 -23l153 -37q256 -61 330 -194q63 -115 63 -397q0 -330 -106 -537 q-139 -270 -438 -270q-180 0 -320 45q-188 61 -246 190zM360 829q0 -152 52 -225q61 -88 206 -88q276 0 277 402q0 150 -57 272q-74 160 -203 160q-127 0 -209 -205q-66 -164 -66 -316z" />
<glyph unicode=":" horiz-adv-x="546" d="M121 702q0 57 36 96.5t93 39.5q143 0 143 -109q0 -166 -125 -166q-147 0 -147 139zM162 137q0 125 137 125q82 0 117 -61q12 -23 12 -39q0 -61 -49 -112.5t-111 -51.5q-106 0 -106 139z" />
<glyph unicode=";" horiz-adv-x="546" d="M131 743q0 49 35 80t84 31q57 0 98 -25q51 -28 51 -81q0 -61 -26 -107q-31 -53 -90 -53q-152 0 -152 155zM143 121q0 51 56 80q45 25 100 24q115 0 115 -133q0 -63 -35 -133q-43 -86 -103 -86q-8 0 -19 9t-11 18q0 10 5 30.5t5 28.5q-113 94 -113 162z" />
<glyph unicode="&#x3c;" horiz-adv-x="1024" d="M68 578v213l886 446v-250l-618 -305l618 -303v-252z" />
<glyph unicode="=" d="M199 848q0 55 14 73.5t68 18.5l665 -2q63 0 64 -92q0 -86 -35 -86q-41 0 -170 4l-129 4q-244 8 -379 -31q-33 -10 -39 -10q-59 0 -59 121zM219 520q0 53 15.5 73.5t66.5 20.5l666 -2q63 0 63 -94q0 -86 -37 -86q-43 0 -170 4l-127 4q-209 6 -417 -39q-59 0 -60 119z" />
<glyph unicode="&#x3e;" horiz-adv-x="1024" d="M70 127v252l618 303l-618 305v250l886 -446v-213z" />
<glyph unicode="?" horiz-adv-x="1112" d="M41 971q0 180 152 354q158 182 333 182q137 0 326 -86q221 -100 221 -211q0 -133 -147 -295q-20 -20 -107 -110l-168 -176q-150 -158 -149 -244q0 -16 30 -51q20 -23 23 -31l-20 -24q-43 -12 -207 -13q-61 0 -82 6q-49 15 -49 58q0 180 153 354q53 61 285 313 q156 170 156 287q0 76 -82 76q-109 0 -263 -94q-160 -98 -194 -197q-10 -57 -37 -139l-37 -12q-37 -12 -65 -13q-72 0 -72 66zM145 104q0 109 222 109q70 0 153 -35q101 -41 101 -100q0 -92 -207 -92q-115 0 -166 14q-102 29 -103 104z" />
<glyph unicode="@" horiz-adv-x="1777" d="M68 561q0 324 176 578q197 285 508 284q68 0 145 -20q39 -10 141 -35l133 -29q113 -24 209 -47q330 -78 330 -510q0 -190 -133 -329.5t-322 -139.5q-59 0 -274 43q-131 -20 -260 -20q-92 0 -152 72q-55 66 -55 159q0 477 404 455l71 -4l21 2q29 41 100 41h43l70 4l28 -31 q-37 -147 -37 -485v-64q0 -100 70 -100q96 0 148 111q41 88 41 196q0 252 -101 406q-119 184 -358 184q-326 0 -516.5 -190.5t-190.5 -516.5q0 -248 170 -374q152 -113 408 -113q158 0 336 57l338 109l51 -18l24 -41q0 -125 -268 -175q-145 -27 -358 -26q-340 0 -445 14 q-254 35 -374.5 167t-120.5 386zM731 582q0 -92 10 -125q20 -66 95 -66q86 0 133 53.5t47 139.5v51q0 47 6 142t6 143q0 45 -70 45q-111 0 -174 -144q-53 -118 -53 -239z" />
<glyph unicode="A" horiz-adv-x="1239" d="M-12 20q53 184 252 697q96 246 125 348q12 53 41 172q14 55 51 164q31 14 59 14q33 0 206 -30.5t202 -41.5l16 -24q-18 -78 -18 -125q0 -225 192 -807q49 -150 125 -352q-18 -41 -117 -45q-49 -2 -59 -2q-100 0 -133 43q-8 78 -19 102q-25 59 -75 60q-74 0 -191 -7 l-117 -6h-90q-10 2 -18 2h-10h-9q-86 0 -121 -36q-36 -38 -36 -134l-23 -41l-43 -12q-45 0 -180 41zM358 391q0 -41 113 -41h21q23 0 38 2h43q231 0 232 39l-49 166l-111 406q-4 33 -8 47q-10 34 -28 34h-1q-27 0 -41 -63q-209 -539 -209 -590z" />
<glyph unicode="B" horiz-adv-x="1296" d="M41 1298q0 45 197 76q145 23 245 23q213 0 443 -107q278 -129 278 -312q0 -91 -78 -181l-149 -144l176 -106q104 -63 104 -219q0 -166 -235 -279q-193 -92 -381 -92q-223 47 -315 47q-75 0 -138 55q-12 27 -12 70q0 14 2 42t2 42q0 326 -14 723v156q-6 125 -37 141 l-31 16q-20 8 -49 27zM428 297q0 -88 32 -126t118 -38q129 0 282 72q182 86 182 201q0 129 -274 129q-145 -1 -295 -54q-45 -16 -45 -106v-78zM453 897q0 -172 71 -172q131 0 283 104q164 113 164 238q0 150 -242 150q-94 0 -203 -33q-49 -14 -63 -80q-10 -45 -10 -207z" />
<glyph unicode="C" horiz-adv-x="1150" d="M41 508q0 154 33 338q111 620 363 620h1l158 -45q209 -59 276 -98q84 -47 107 -143q18 -78 18 -293q0 -41 -20 -80q-39 -33 -88 -33q-160 0 -160 254v-1l10 212v7q0 28 -16 54q-18 28 -49 29q-150 0 -262 -371q-90 -297 -90 -497q0 -352 245 -352q102 0 224 36 q338 102 360 105l33 -17l8 -18q-33 -94 -240 -176q-174 -70 -307 -70q-604 0 -604 539z" />
<glyph unicode="D" horiz-adv-x="1226" d="M55 1356l23 28q90 20 209 21q328 0 581 -131q318 -164 318 -463q0 -297 -205 -559q-219 -279 -508 -279q-39 0 -162 41q-68 23 -102 23q-100 0 -100 354q0 92 4 166l8 148v63q0 -4 2 47l6 154q1 26 1 54.5t-1 59.5q-6 174 -74 273zM381 319q0 -68 14 -96q23 -43 84 -43 q178 0 314 250q116 215 116 413q0 167 -75 281q-86 133 -242 133h-4q-69 0 -115 -32q-33 -23 -47 -121q-12 -80 -27 -283q-18 -258 -18 -452v-50z" />
<glyph unicode="E" horiz-adv-x="1036" d="M55 1335l29 27l127 4q21 1 47 1q120 0 354 -15q104 -4 211 -11q178 -18 178 -69q0 -55 -323 -64q-53 -2 -107 -6q-100 -8 -118 -69q-8 -88 -17 -175q-18 -174 -18 -256q0 -68 102 -79q35 -4 123 -5q121 0 174 -12q88 -20 107 -94q-16 -53 -248 -53h-166 q-115 -10 -115 -76v-80q0 -115 47 -139q25 -12 164 -12q111 0 230 -15q188 -23 188 -65q0 -68 -315 -82l-138 -6q-45 -2 -129 -2h-92q-88 0 -149 51q-23 18 -74 76q-14 70 -14 223v51q0 25 2 72t2 71v271q2 12 2 20v43q0 355 -64 475z" />
<glyph unicode="F" horiz-adv-x="1011" d="M55 1360q16 29 43 29l695 6q82 0 122 -9q72 -16 97 -67q-18 -41 -518 -86q-53 -12 -76 -195q-14 -115 -15 -229l19 -33q43 -6 104 -6h54q147 0 217 -12q127 -23 127 -80q0 -41 -21 -62q-33 -8 -96 -8q-29 0 -123 4l-94 4h-20q-191 0 -191 -153q0 -279 27 -424 q-21 -49 -101 -49h-12l-115 4q-64 2 -82 51q31 156 31 395v90q0 8 -2 97l-8 389q-4 240 -62 344z" />
<glyph unicode="G" horiz-adv-x="1183" d="M55 557q0 180 45 365q133 542 466 542h1q260 0 379 -94q133 -106 133 -358q0 -106 -14 -133q-25 -47 -121 -48q-82 0 -104 132q-6 53 -31 192q-2 14 -10 49q-25 131 -101 131q-162 0 -280 -360q-96 -291 -96 -490q0 -141 51 -249q68 -145 192 -146q96 0 176 88t80 187 l-10 24q-10 8 -47 8h-21q-10 0 -20 -2h-23q-61 0 -89.5 18.5t-51.5 75.5l23 29q184 53 399 53q55 0 102 -22q59 -27 60 -76q0 -180 -119 -330q-128 -159 -303 -159h-2q-375 0 -502 92q-162 117 -162 481z" />
<glyph unicode="H" d="M82 1290q0 8 14 43l39 23l31 -4q20 0 62 12t63 12q115 0 149 -47q-55 -342 -55 -532q0 -43 4 -64q45 -28 208 -28h11q135 0 199 20q24 32 24 125v8v133q0 227 -30 381q29 59 164 60q184 -1 184 -48q0 -123 -35 -367.5t-35 -367.5q0 -119 4 -229l15 -389q2 -41 -74 -41 q-121 0 -205 33q-14 43 -14 165q0 -14 2 41q2 66 6 172v56l-8 43l-43 12h-297q-49 0 -82 -25q-12 -31 -12 -67q0 -193 32 -402q-16 -49 -71 -49q-168 0 -197 27q-20 20 -20 197q0 53 6 208l8 207v17q0 75 -14 239q-33 352 -33 426z" />
<glyph unicode="I" horiz-adv-x="591" d="M117 1364l8 18q80 27 145 27h9l114 -4q82 -2 82 -49q0 -57 -22.5 -172t-22.5 -172.5t-8 -274.5q-6 -162 -6 -268q0 -217 22 -434l-18 -25q-106 -16 -154 -16q-86 0 -131 26l-8 37q0 127 6 289l19 485v18q0 63 -11 183q-24 258 -24 327v5z" />
<glyph unicode="J" horiz-adv-x="1021" d="M-106 283l22 41l43 12q104 0 165.5 -73t121.5 -146q68 -66 170 -66q170 0 217 367q18 143 18 338q0 240 -16 362q-10 78 -31 221q23 53 205 54q84 -1 131 -50q-47 -176 -47 -415q0 -88 6 -205l6 -117q2 -39 2 -86q0 -268 -92 -381q-121 -147 -455 -147q-145 0 -282 76 q-158 86 -184 215z" />
<glyph unicode="K" horiz-adv-x="1290" d="M82 63q33 45 33 900v198q0 -4 -25 205q14 31 45 31l203 2l12 -2q23 0 62 -17l22 -37q-18 -139 -31 -241l-28 -242l6 -82l20 -20q51 20 293 280l148 156q86 92 133 168q18 8 51 16q147 0 172 -100l-291 -270q-188 -174 -235 -303q27 -90 159 -203q37 -31 256 -195 q154 -115 203 -180q0 -90 -207 -150q-45 25 -170 138q-45 41 -163 147l-91 78q-137 119 -192 119q-57 0 -88 -88q-23 -66 -23 -138q0 -31 14.5 -93t14.5 -93q0 -39 -106 -39q-154 0 -197 55z" />
<glyph unicode="L" horiz-adv-x="909" d="M96 1300l10 25q104 33 177 33q198 -1 223 -58q-59 -129 -78 -479q-14 -282 -14 -429q0 -59 2 -95l6 -92q33 -43 153 -43q8 0 179 8h6q52 0 114 -31q76 -37 76 -88q0 -43 -106 -43h-17q-8 0 -16 2h-16q-102 0 -308 -26q-111 -14 -182 -15q-61 0 -124.5 59.5t-63.5 118.5 q0 74 14 246q8 98 8 150v88q0 10 2 82l4 168q1 26 1 50q0 226 -50 369z" />
<glyph unicode="M" horiz-adv-x="1691" d="M106 80q-1 13 -1 35q0 111 18 432q16 309 16 469q0 178 -26 330l24 32q57 12 164 13q80 0 180 -21q129 -26 152 -67q-14 -49 -15 -68q0 -139 58 -434q70 -358 135 -359q53 0 156 283q66 182 110 346q56 206 56 283v12q29 41 176 41h182q80 0 108 -61q-67 -264 -67 -953 v-20q0 -272 14 -373l-20 -18l-53 -9q-84 0 -179 27q-26 24 -26 263v18q0 242 18 632l-16 31q-59 -61 -166 -338q-99 -259 -99 -360q0 -12 1 -21l-29 -41q-101 -28 -152 -28h-4q-106 0 -174 20q-70 88 -102 250q-16 80 -58 287q-33 158 -86 252q-49 -68 -49 -545 q0 -76 15 -246q8 -96 8 -143t-137 -47q-66 0 -129 53z" />
<glyph unicode="N" horiz-adv-x="1193" d="M96 1346l21 32q78 14 213 15h67q102 0 103 -33q0 -12 -4 -39t-4 -39q0 -119 124.5 -471t200.5 -442q47 72 47 424q0 338 -33 632q37 49 125 50q61 0 117 -15q23 -18 25 -45q-55 -164 -56 -522q0 -111 9 -332l18 -500q2 -33 -49 -63q-43 -27 -80 -27q-154 0 -283 197 q-80 123 -182 387q-90 233 -129 268q-31 -43 -31 -424q0 -72 15 -227q8 -88 8 -137l-12 -25q-119 -16 -168 -16q-12 0 -28.5 15.5t-18.5 27.5q6 39 8 125l2 82v708q0 264 -25 394z" />
<glyph unicode="O" horiz-adv-x="1206" d="M55 596q0 231 84 489q111 338 293 338q33 0 197 -43q303 -47 420 -204q104 -145 104 -461q0 -268 -78 -457q-106 -258 -336 -258q-401 0 -526 90q-158 115 -158 506zM344 586q0 -188 39 -320q61 -205 203 -205q176 0 258 267q55 180 55 413q0 537 -258 537 q-160 0 -240 -279q-57 -198 -57 -413z" />
<glyph unicode="P" horiz-adv-x="1187" d="M41 1294q18 41 178 62q94 12 201 12q334 0 495 -80q231 -115 232 -403q0 -184 -51 -285q-68 -129 -232 -162q-63 -12 -159 -16q-80 -4 -160 -6l-101 -6l-28 -37q0 -213 16 -328q-16 -35 -186 -35q-61 0 -101 45q12 137 13 273v78q0 37 2 109.5t2 109.5v80q0 412 -43 528 q-33 20 -78 61zM406 621q0 -68 88 -103q70 -29 147 -29q121 0 199 154q66 131 65 262q0 143 -55 242q-68 123 -199 123q-57 0 -108 -10q-90 -18 -111 -107q-2 -8 -12 -172q-14 -240 -14 -360z" />
<glyph unicode="Q" horiz-adv-x="1206" d="M55 682q0 223 80 438q106 285 289 285q389 0 551 -160t162 -547q0 -172 -70 -370l-29 -82q-14 -41 -47 -135q16 -35 111 -78q47 -20 63 -45q-8 -27 -51 -57.5t-72 -30.5q-25 0 -136 62.5t-142 62.5h1q0 -1 -147 -17q-39 -4 -43 -4q-295 0 -419 203q-100 162 -101 475z M328 643q0 -434 211 -514q-25 31 -37 64q25 41 76 88q61 57 96 57l33 -12q61 -94 96 -95q47 0 84 195q28 147 28 242v6q0 629 -307 629q-147 0 -225 -269q-55 -190 -55 -391z" />
<glyph unicode="R" horiz-adv-x="1300" d="M41 1307q27 61 391 61h37q727 0 727 -410q0 -158 -76 -233l-131 -98q-66 -49 -131 -97q49 -80 172 -178q262 -209 270 -223q-61 -113 -149 -125q-45 23 -311 232q-206 161 -351 161h-2q-55 0 -55 -149q0 -102 23 -203q-25 -45 -84 -45h-101q-59 0 -98 6l-20 31l30 276 q0 160 -2 226l-8 264q-12 401 -39 434q-4 4 -92 70zM436 664q0 -59 74 -60q166 0 297 116t131 279q0 150 -82 203q-63 41 -221 41q-86 0 -113 -8q-59 -19 -69 -78q-16 -94 -17 -373v-120z" />
<glyph unicode="S" horiz-adv-x="1157" d="M0 119q0 74 82 98q123 -39 246 -80q135 -37 258 -37q225 0 225 82q0 59 -195 119q-268 82 -362 148q-195 133 -195 356q0 203 123 405q137 227 334 228q174 0 350 -97q209 -114 209 -274q0 -293 -53 -365q-66 -30 -110 -30h-3q-121 0 -121 241q0 37 5 103q6 74 6 104v11 q0 157 -117 157q-131 0 -238 -211q-94 -186 -94 -334q0 -172 209 -268q4 -2 152 -55l237 -86q209 -76 209 -197q0 -92 -164 -139q-121 -35 -245 -35q-115 0 -344.5 32t-344.5 32q-25 0 -42 32.5t-17 59.5z" />
<glyph unicode="T" horiz-adv-x="1175" d="M0 1323q61 61 453 61h88q10 0 24 -2h101q193 0 297 -16q180 -29 213 -102q-25 -29 -221.5 -54.5t-206.5 -42.5q-18 -31 -48 -397q-26 -332 -26 -433v-7q0 -182 24 -275l-18 -35q-37 -18 -45 -18l-227 2q-27 0 -39 33q49 98 49 469v102q0 6 -2 90l-4 166q-2 123 -27 301 q-31 27 -192 62q-147 33 -193 96z" />
<glyph unicode="U" horiz-adv-x="1236" d="M96 684q0 74 10 297l9 178v15q0 32 -6 71l-13 78q29 29 84 29h72q10 2 16 2h11h24q85 0 137 -25l17 -29q-53 -285 -54 -577v-88q0 -238 35 -361q57 -202 213 -202h2q147 0 207 190q37 119 37 352v72q0 8 -2 19v22q0 238 -4 332q-10 236 -37 313q47 39 176 39 q57 0 100 -16l13 -23q0 -152 -4 -289l-19 -614q0 -43 -6 -160q-33 -319 -377 -319q-266 0 -401 37q-240 66 -240 657z" />
<glyph unicode="V" horiz-adv-x="1224" d="M-25 1333q31 37 160 37h-1q0 -1 145 -14q23 -2 36 -2q29 0 54 -148l12 -73q4 -25 20 -119q2 -18 121 -475q59 -229 84 -256q33 35 127 301q10 27 168 485q90 264 109 291q57 10 82 10q132 0 159 -57q-33 -102 -88 -217l-104 -219q-29 -59 -101 -220q-18 -45 -143 -436 q-27 -86 -78 -215q-4 -2 -37 -8h-73q-207 0 -242 39q-14 16 -274 885q-94 311 -136 411z" />
<glyph unicode="W" horiz-adv-x="1896" d="M-12 1284l32 29q33 0 84 6q68 8 84 8q49 0 111 -31q4 -4 45 -239l74 -422q39 -225 55 -277l29 -22q66 41 227 561q59 190 59 238l15 36q86 23 190 23q166 0 199 -64q0 -27 -9 -79t-9 -78q0 -129 30 -348q39 -276 82 -310q37 23 158 338l86 226q25 66 55 157q20 66 51 168 q35 119 39 123q27 49 99 49q133 0 163 -65q-47 -119 -98 -228l-178 -374q-29 -61 -109 -330q-63 -215 -131 -307l-65 -17h-82q-184 0 -248 43l-41 328q-33 270 -76 305q-80 -74 -127 -219q-2 -2 -67 -270q-37 -153 -86 -219q-94 -16 -142 -17q-207 0 -245 62l-162 811 q-31 158 -92 405z" />
<glyph unicode="X" horiz-adv-x="1200" d="M-12 1245q109 121 288 146l39 -19q74 -164 136 -276q115 -207 172 -232q76 68 182 244l160 266l28 4q155 0 221 -96q-37 -61 -147 -182q-55 -57 -164 -176q-117 -127 -147 -236q41 -104 145 -219q293 -322 299 -336q-33 -55 -104.5 -93t-139.5 -38q-18 0 -45 14 q-143 227 -159 250q-111 156 -199 207q-82 -59 -207 -242l-186 -274q-127 31 -166 86q29 63 139 195l201 237q100 119 100 158q0 55 -303 424q-131 160 -143 188z" />
<glyph unicode="Y" horiz-adv-x="1191" d="M-53 1290q41 51 139 78q6 2 166 33l20 -15q76 -199 142 -346q121 -272 192 -272q63 47 211 285q131 213 184 336q32 22 78 22h4q100 0 162 -76q-51 -94 -229 -309q-158 -190 -213 -313q-78 -172 -78 -455q0 -51 29 -244q-38 -34 -181 -34h-8h-59q-16 0 -66 18l-16 27 l12 145q6 76 15 145q0 236 -103 390l-225 337q-18 27 -123 168q-49 66 -53 80z" />
<glyph unicode="Z" horiz-adv-x="1146" d="M27 123q0 84 168 309q78 102 309 377q195 229 299 381q-14 20 -39 20q-37 0 -445 -32q-101 -9 -124 -9q-59 0 -95 97q6 25 32 45t50 20q127 0 380 31t380 31q78 0 128 -61.5t50 -141.5q0 -47 -178 -256q-92 -109 -354 -408q-205 -236 -258 -313q37 -43 266 -43 q47 0 238 8q12 0 98 2h4q73 0 94 -74q-25 -90 -215 -102q-68 -2 -256 -12q-37 -4 -186 -17q-117 -10 -187 -10q-49 0 -104 54.5t-55 103.5z" />
<glyph unicode="[" horiz-adv-x="696" d="M111 -260q0 182 6 455l12 544q6 272 6 412q0 -4 -24 254q12 29 41 29h131q350 0 432 -45l10 -27l-31 -23h-32q-20 0 -59.5 3.5t-57.5 3.5q-88 2 -126 -35t-38 -125q0 -137 -12 -379l-23 -445q-14 -283 -14 -462q0 -150 92 -164q281 0 281 -55q0 -82 -345 -82h-55 q-195 0 -194 141z" />
<glyph unicode="\" horiz-adv-x="925" d="M109 1335q41 41 225 41h28q31 0 48 -47l12 -72q49 -287 82 -434q162 -725 301 -968q10 -18 46 -52t46 -55q-23 -31 -70 -31h-57q-8 0 -18 -2q-63 0 -78 2q-76 10 -103 54q-16 25 -47 135l-41 145q0 2 -30 119l-162 627q-66 252 -113 372q-33 84 -69 166z" />
<glyph unicode="]" horiz-adv-x="696" d="M0 -328q0 37 156 54q172 16 190 34q29 51 29 230l2 418q2 276 -6 477q-4 131 -15 229q-16 180 -51 213q-29 27 -145 29q-94 2 -121 6l-25 31q23 41 174 41h62q12 -2 14 -2h78q209 0 264 -31l6 -27q0 -760 -12 -1360q-6 -319 -22 -340q-59 -78 -175 -77h-63 q-145 0 -215 10q-125 18 -125 65z" />
<glyph unicode="^" horiz-adv-x="1024" d="M43 735l328 635h282l328 -635h-227l-242 465l-242 -465h-227z" />
<glyph unicode="_" horiz-adv-x="1024" d="M0 -125h1024v-154h-1024v154z" />
<glyph unicode="`" horiz-adv-x="1024" d="M248 1245q0 23 198 23q31 0 41 -6q6 -25 41 -93l27 -41q39 -59 90 -110l10 -10l11 -13q0 -12 -17 -16h-143q-39 0 -70 37q-8 8 -47 71l-55 70q-86 82 -86 88z" />
<glyph unicode="a" horiz-adv-x="948" d="M39 254q0 131 149 188l209 41q104 20 209 43q10 16 10 37q0 78 -30 131q-37 66 -111 66q-72 0 -149 -68l-187 -162l-26 11q-33 35 -41 80q35 86 164 174t221 88q8 0 135 -27q172 -37 223 -98.5t51 -235.5q0 -37 -4 -133l-6 -143q-3 -81 -4 -81v3q0 -27 7 -78t7 -78 q0 -53 -86 -53h-37q-76 0 -131 59l-16 2h1q0 -1 -181 -14q-27 -2 -49 -2q-127 0 -220 59q-109 70 -108 191zM203 203q0 -68 196 -68q41 0 107 15q76 16 96.5 34.5t20.5 89.5q0 84 -60 84q-82 0 -184 -32q-115 -35 -158 -88q-18 -23 -18 -35z" />
<glyph unicode="b" horiz-adv-x="985" d="M82 1384l24 39q55 20 187 21q102 0 125 -35q-63 -227 -64 -510l17 -16q367 -59 397 -74q170 -78 170 -352q0 -182 -92 -307q-102 -139 -279 -140q-37 0 -107.5 5t-107.5 5l-18 -4l-27 -24q-25 -23 -33 -23h-69q-25 0 -35 2q-86 8 -86 41q0 168 6 328l14 375q6 160 7 301 q0 225 -29 368zM326 381q0 -295 178 -295q106 0 151 182q29 115 29 273q0 111 -20 159q-35 84 -123 84q-139 0 -187 -145q-28 -88 -28 -258z" />
<glyph unicode="c" horiz-adv-x="839" d="M47 324q0 174 70 338q90 212 236 212h1q31 0 72 -10q12 -4 70 -26l204 -78q70 -49 70 -228v-40q0 -158 -104 -158q-117 0 -117 256v53q0 109 -55 109q-86 0 -150 -215q-51 -172 -51 -293q0 -201 149 -201q86 0 344 68l29 -13l10 -20q0 -51 -161 -92q-147 -37 -213 -37 q-207 0 -301 82q-102 90 -103 293z" />
<glyph unicode="d" horiz-adv-x="997" d="M47 340q0 188 76 338q96 188 262 188q18 0 147 -14q37 -4 31 -4l31 4q25 27 24 59l-6 314q0 25 -15 71.5t-15 71.5q0 37 135 37h49q109 0 149 -35q-51 -172 -51 -588v-127l-2 -127v-46q0 -279 45 -470q-18 -37 -112 -37q-80 0 -99 9q-29 18 -84 41q-86 -25 -266 -25 q-145 0 -225 100q-74 92 -74 240zM301 393q0 -131 18 -198q33 -123 130 -123q82 0 137 46t55 126v-1q-1 0 -16 310q-4 82 -4 88v33q0 49 -3 55q-16 53 -88 53q-106 0 -174 -145q-55 -119 -55 -244z" />
<glyph unicode="e" horiz-adv-x="921" d="M47 330q0 133 53 284q61 176 150 242q47 35 160 35q174 0 301 -82q149 -94 149 -258q0 -156 -57 -252q-70 -119 -215 -119q-47 0 -140.5 20.5t-140.5 20.5q-27 0 -26 -31q0 -143 206 -143q53 0 155.5 28.5t156.5 28.5q61 0 61 -34q0 -37 -153 -82q-133 -39 -203 -39 q-457 0 -457 381zM299 416q0 -61 55 -101q48 -34 109 -34h4q86 0 137 131q41 106 41 206q0 68 -33 117q-37 57 -100 58q-78 0 -150 -154q-63 -137 -63 -223z" />
<glyph unicode="f" horiz-adv-x="741" d="M-53 805q8 27 121 49q39 8 143 29l16 192q8 86 19 193q53 231 258 231q80 0 215 -45q158 -53 184 -102l-31 -23q-139 31 -157 31q-244 0 -244 -453l6 -28q53 -25 135 -33q47 -2 144 -10l22 -31q-20 -51 -131 -68l-112 -16q-37 -6 -52 -8q-14 -37 -14 -97v-61 q0 -362 55 -522q-23 -35 -215 -35q-47 0 -80 20q-12 31 -12 189v57q0 29 2 83t2 83v111q0 127 -18 170q-10 8 -140 32q-102 18 -116 62z" />
<glyph unicode="g" horiz-adv-x="1019" d="M47 -254q10 23 57 41q41 18 70 18q4 0 124 -66.5t181 -66.5q111 0 156 62q39 53 39 166q0 116 -125 116h-2q-37 0 -127 -8q-23 -2 -35 -2q-326 0 -326 363q0 193 78 350q98 199 266 199q37 0 86 -15q119 -35 140 -35q14 0 53 19.5t57 19.5q78 0 193 -28l6 -21 q-47 -141 -47 -344q0 -92 10 -254l17 -254q2 -45 2 -135q0 -139 -136 -215q-111 -63 -262 -64q-147 0 -262 27q-178 41 -213 127zM311 330q0 -254 146 -254q94 0 145 102q43 84 43 187q0 -2 6 231v28q0 66 -8 99q-20 74 -88 74q-109 0 -182 -187q-62 -153 -62 -280z" />
<glyph unicode="h" horiz-adv-x="1046" d="M82 49q0 119 24 512q12 197 13 307q0 80 -10 217q-10 131 -15 218q-4 76 -4 114l4 27q10 6 90 14l103 10q111 0 145 -59q-61 -164 -61 -479q0 -33 18 -60q33 -4 72 -4h86q10 2 16 2h15q172 0 272 -71q117 -82 117 -248q0 -63 -13 -246q-10 -152 -10 -244q0 -33 -12 -59 q-12 -14 -60 -14q-51 0 -110 12q-78 16 -94 43q37 147 37 375v43q0 309 -125 309q-150 0 -201 -123q-35 -82 -35 -250v-219q0 -68 25 -147q-21 -33 -76 -33h-12q-8 0 -27 2h-16q-76 0 -146 31z" />
<glyph unicode="i" horiz-adv-x="540" d="M96 836q0 43 166 43h35q23 0 55 -7q76 -14 76 -53q0 -55 -8 -117l-17 -122q0 -43 -4 -170l-4 -127v-10q0 -34 11 -85q25 -121 24 -155q0 -35 -115 -35h-47q-63 0 -92 4q-51 12 -51 43q0 20 12 88q6 33 6 57q0 305 -20 469q-6 23 -23 142q-4 29 -4 35zM96 1133q0 43 51 65 q41 18 91 19q66 0 122 -19q84 -27 84 -72q0 -49 -57 -77q-45 -23 -100 -23q-59 0 -117 25q-74 31 -74 82z" />
<glyph unicode="j" horiz-adv-x="561" d="M-434 -311q0 61 121 61q27 0 135 -91t178 -91q207 0 207 434q0 494 -74 862q33 51 152 51h37l28 5q-6 0 -6 -1q0 -2 98 -16l25 -33q-39 -137 -39 -405q0 -80 6 -239.5t6 -239.5v-156q0 -338 -424 -338q-133 0 -264 39q-186 55 -186 158zM102 1159q0 49 60 76q45 22 97 22 h5q57 0 119 -24q82 -33 82 -78q0 -39 -49 -63q-41 -20 -84 -21h-37q-193 0 -193 88z" />
<glyph unicode="k" horiz-adv-x="1001" d="M82 27q39 70 39 741v207q0 51 -12 201q-10 125 -11 200l2 19q51 41 142 41q150 0 180 -50q-39 -233 -45 -401l-17 -479l19 -29q51 25 225 217q166 184 172 185q43 0 91 -30t63 -69q-10 -20 -143.5 -141t-163.5 -178q35 -80 131 -156q244 -195 262 -223 q-31 -102 -148 -102q-10 0 -184 124q-182 131 -246 154q-41 -8 -66.5 -53t-25.5 -90v1q2 0 21 -91q-31 -25 -103 -25q-158 0 -182 27z" />
<glyph unicode="l" horiz-adv-x="493" d="M82 1368q0 39 180 39q102 0 144 -23l6 -24q0 -143 -29 -522q-14 -188 -14 -318q0 -76 18 -307q10 -129 10 -186l-12 -25q-102 -18 -147 -18q-94 0 -125 41q26 154 26 442v22v152q0 92 -4 176l-14 293q-2 39 -27 164q-12 61 -12 94z" />
<glyph unicode="m" horiz-adv-x="1595" d="M82 842q27 45 119 45q129 0 174 -33l12 -37q176 33 211 33q80 0 276 -86l160 65q80 33 174 33q160 0 226.5 -68.5t66.5 -228.5q0 -31 -4 -127l-4 -96v-18q0 -38 6 -95l12 -112q2 -47 2 -66q0 -23 -22.5 -38t-44.5 -15q-127 0 -213 27l-23 32q33 150 33 416q0 115 -12 170 q-27 119 -98 119q-131 0 -185 -234q-35 -152 -35 -333q0 -66 9 -156q-14 -31 -74 -41q-23 -4 -90 -4q-63 0 -96 31q-14 23 -15 30q0 37 10 88q25 125 25 156v92q0 160 -20 236q-35 129 -125 129q-193 0 -193 -539q0 -98 8 -184l-16 -23q-31 0 -92.5 -5t-91.5 -5 q-66 0 -66 41q0 90 8 223q18 299 19 379q0 115 -31 199z" />
<glyph unicode="n" horiz-adv-x="1042" d="M82 856q16 39 117 39h18q8 0 16 -2h21q29 0 145 -43q27 0 60 4l67 8q16 2 37 2q219 0 308.5 -85t89.5 -304v-90q0 -6 -3 -76l-8 -276q-4 -35 -131 -35q-150 0 -149 45q0 53 10 129q16 117 16 127q4 33 4 68v69q0 150 -20 221q-35 123 -129 123q-211 0 -211 -547 q0 -96 16 -202l-16 -29q-41 -8 -72 -8h-32q-145 0 -146 57q0 61 6 127q18 195 19 217v58q0 254 -33 403z" />
<glyph unicode="o" horiz-adv-x="942" d="M47 344q0 109 41 287q47 207 111 248q34 22 106 22h6q20 0 51 -4q68 -9 328 -66q129 -29 174 -137q31 -74 31 -233q0 -203 -70 -332q-88 -164 -274 -164q-504 0 -504 379zM295 332q0 -106 33 -185q43 -104 135 -104q104 0 162 162q43 121 43 252q0 334 -174 334 q-106 0 -160 -185q-39 -135 -39 -274z" />
<glyph unicode="p" horiz-adv-x="1007" d="M88 -354q0 121 10 278l19 279q4 84 4 147v58q0 375 -31 471q22 39 99 39h8q25 0 30 -3h21l162 -53q2 -2 10 -2h16q20 0 59.5 2t57.5 2h7q223 0 319 -127q82 -112 82 -350q0 -252 -109 -336q-76 -57 -291 -57h-88q-8 0 -22 2h-48q-57 0 -57 -217v-37q0 -51 19 -115 q-25 -39 -101 -39q-70 0 -102 6q-74 14 -74 52zM342 326q0 -264 172 -265q104 0 154 138q34 95 34 220v7q0 336 -165 336q-127 0 -170 -166q-25 -96 -25 -270z" />
<glyph unicode="q" horiz-adv-x="1007" d="M47 322q0 203 64 366q90 231 251 232q45 0 259 -48q72 41 178 41q37 0 75 -12q51 -14 52 -43q0 -88 -17 -248q-24 -231 -24 -383v-12q0 -98 6 -297t6 -297q0 -27 -55 -43q-45 -14 -80 -14q-68 0 -90 6q-59 16 -60 55v-7q3 0 19 237q2 31 2 67q0 41 -8 66q-25 10 -113 10 q-25 0 -73 -2t-70 -2h-9q-165 0 -238 76q-75 77 -75 252zM307 324q0 -242 166 -242q121 0 154 76q12 31 16 184l4 217q0 10 2 32.5t2 33.5v24q0 156 -100 156q-111 0 -184 -193q-60 -155 -60 -288z" />
<glyph unicode="r" horiz-adv-x="720" d="M82 877q29 41 201 41q49 0 65 -7q31 -12 31 -53l-4 -37q151 101 200 101q145 0 146 -97l-4 -37l-31 -18q-12 2 -45 15.5t-51 13.5q-113 0 -180 -248q-49 -180 -50 -328q0 -31 7.5 -94t7.5 -94q0 -49 -68 -49q-201 0 -201 84q0 25 8.5 72.5t8.5 72.5v178q0 338 -41 484z " />
<glyph unicode="s" horiz-adv-x="870" d="M41 100q0 37 23.5 68t58.5 31q180 -119 289 -119q39 0 90 20q63 25 63 56q0 45 -127 82q-182 51 -235 81q-127 72 -127 216q0 135 55 249q70 143 193 144q47 0 268 -47q115 -23 158 -84.5t43 -184.5q0 -78 -19 -110q-27 -45 -98 -45q-125 0 -125 182v49q0 135 -62 135 q-59 0 -108 -106q-41 -90 -41 -160q0 -104 127 -182l235 -107q127 -57 127 -125q0 -61 -76.5 -109t-142.5 -48q-27 0 -78 5t-77 5q-131 0 -230 14q-184 27 -184 90z" />
<glyph unicode="t" horiz-adv-x="647" d="M0 776q8 39 109 68q92 25 92 82v-3q-1 0 -15 226q-2 35 -2 57q0 82 135 82h31q57 0 76 -6q49 -16 49 -51v1q-1 0 -16 -239q-4 -63 -4 -69q0 -66 96 -66q74 0 98 -76l-24 -26q-49 -8 -150 -23q-29 -18 -29 -164v1l7 -322l4 -225q0 -33 -111 -33q-74 0 -143 39q-6 14 -6 84 v-5q1 0 8 207v50l4 297l-2 67l-25 14l-82 -4h-11q-55 0 -89 37z" />
<glyph unicode="u" horiz-adv-x="1005" d="M82 827q0 52 76 52h8q8 0 29 -2h18q164 0 164 -56q0 -72 -17 -180q-26 -172 -26 -248v-6q0 -129 14 -188q29 -117 119 -117q182 0 182 278q0 51 -20 279q-10 115 -11 170l9 22q39 18 159 19h37q86 0 86 -51q0 -92 -4 -181l-14 -305q-1 -16 -1 -36.5t1 -45.5q2 -45 4 -65 q6 -45 43 -139q-35 -61 -125 -62q-25 0 -104 31q-33 12 -64 12q-18 0 -80 -4l-61 -4q-30 -2 -57 -2q-225 0 -304 131q-49 82 -49 387q0 51 -6 155.5t-6 155.5z" />
<glyph unicode="v" horiz-adv-x="954" d="M0 809l18 29q12 10 107 18q80 8 117 8q57 0 57 -26q-2 -10 -2 -19v-14q0 -45 33 -178q10 -41 49 -181q8 -35 35 -120q33 -104 55 -105q74 109 139 301q6 18 86 273q20 66 33 71q23 12 68 13q45 0 98 -17q68 -20 76 -51l-205 -389l-121 -295q-49 -119 -59 -129 q-55 -14 -129 -14q-184 0 -213 65q-18 43 -33 121q-18 104 -25 125q-20 74 -65 192z" />
<glyph unicode="w" horiz-adv-x="1468" d="M14 780q14 33 47 39q10 -4 48 2q45 6 51 6q80 0 131 -26l14 -33l-6 -70q0 -57 39 -229q41 -182 72 -205q63 66 133 228q31 70 106 251q45 12 119 13q160 -1 195 -60q-4 -12 -9 -20l-16 -33q0 -76 29 -211q33 -156 80 -180q37 27 114 221l160 399l49 9q96 0 127 -56 q-37 -94 -108 -235l-117 -232l-139 -329q-39 -20 -64 -21h-27q-160 0 -215 23q-10 18 -26 121q-18 119 -23 133q-35 135 -57 151q-10 -10 -146 -325q-53 -123 -77 -123q-231 0 -281 22q-18 80 -100 465q-41 186 -103 305z" />
<glyph unicode="x" horiz-adv-x="927" d="M0 61q6 10 217 250q88 100 88 123q0 29 -80 117q-106 119 -205 240q31 37 106 70.5t124 33.5q16 0 74 -76q143 -186 161 -201q43 29 189 203q66 78 100 90q98 -14 113 -22q29 -16 41 -55l-185 -179q-127 -123 -145 -196q6 -43 84 -131l209 -238q-49 -92 -180 -92 q-37 0 -181 168q-76 90 -106 110q-49 -20 -137 -131q-59 -74 -113 -149q-12 -4 -35 -12q-35 0 -77 23.5t-62 53.5z" />
<glyph unicode="y" horiz-adv-x="1085" d="M154 -186q33 6 59 6q199 -182 309 -182q113 0 172 96q51 82 51 200q0 88 -53 89q-20 0 -49 -7q-63 -14 -90 -14q-285 0 -373 102q-65 75 -65 292v7v113q0 6 2 59v17q0 34 -6 84q-6 55 -10.5 96t-4.5 53q0 63 195 64q76 0 108 -51q-32 -171 -32 -408v-14v-62 q0 -123 18 -182q31 -100 117 -100q156 0 198 125q23 66 23 252q0 260 -43 387q32 43 136 43h18l112 -5q10 -2 29 -10l14 -26l-4 -959q0 -156 -141 -241q-119 -74 -285 -74q-121 0 -283 47q-208 61 -208 155q0 32 86 48z" />
<glyph unicode="z" horiz-adv-x="897" d="M27 131q0 68 123 186q25 20 92 80l18 17q31 29 117 92q158 119 227 188l-18 13h-88q-8 0 -23 -2h-29q-354 0 -354 88l6 22q39 39 207 39h98q27 0 78 2t78 2q336 0 336 -186q0 -45 -166 -176q-57 -45 -211 -160q-137 -102 -170 -162q16 -23 139 -31q182 -12 213 -18 q111 -23 111 -80q0 -47 -106 -47h-27l-72 6h-31l-419 -8h-4q-125 0 -125 135z" />
<glyph unicode="{" horiz-adv-x="694" d="M39 643q0 41 84 106.5t84 104.5q0 43 -20.5 128t-20.5 128q0 168 143 250q115 66 297 65q90 0 90 -57q0 -31 -82 -68q-43 -18 -151 -75q-82 -47 -82 -125q0 -51 10 -117l19 -115q4 -35 4 -61q0 -66 -105 -152q78 -51 107.5 -100t29.5 -139q0 -61 -10 -165t-14 -163 t-4 -88q0 -70 82 -125q14 -10 141 -84q-12 -70 -117 -70q-158 0 -250 85t-92 241q0 70 11 172l18 174q2 39 2 68q0 53 -87 109.5t-87 72.5z" />
<glyph unicode="|" horiz-adv-x="1024" d="M385 -340v1706h254v-1706h-254z" />
<glyph unicode="}" horiz-adv-x="731" d="M0 -207q16 37 109 55q127 27 161 43q84 41 84 134q0 68 -14 161l-25 162q-6 51 -6 86q0 37 23 70q12 18 92 82q-115 96 -115 186q0 51 43 225q20 82 21 138q0 55 -82 94q-39 14 -98 35l-35 12q-100 35 -101 76q0 53 115 53q158 0 272 -55q150 -72 150 -211 q0 -53 -51 -199q-27 -76 -27 -121q0 -43 87 -97t87 -77q0 -41 -10 -72q-86 -45 -109 -69q-41 -43 -41 -119q0 -55 26 -164.5t26 -165.5q0 -176 -160 -266q-131 -74 -322 -74q-78 0 -100 78z" />
<glyph unicode="~" horiz-adv-x="1366" d="M190 1255q113 260 293 261q61 0 210 -66t200 -66q84 0 160 138l125 -105q-115 -262 -293 -262q-66 0 -208 66.5t-202 66.5q-76 0 -158 -135z" />
<glyph unicode="&#xa1;" horiz-adv-x="616" d="M96 997q0 61 103 90q72 20 151 21q199 0 199 -104q0 -66 -103 -95q-70 -20 -157 -20q-68 0 -121 22q-72 29 -72 86zM154 -315q0 39 12 82q61 338 61 636v35q0 203 -32 271q-14 29 -15 41q0 66 162 65q154 0 154 -61q0 -39 -2 -62l-9 -86q-8 -86 -8 -145v-123l-2 -125 q-4 -250 31 -412q27 -80 26 -106q0 -55 -260 -55q-119 0 -118 45z" />
<glyph unicode="&#xa2;" horiz-adv-x="1024" d="M135 567q0 129 47 289q57 193 142 246q12 8 67 26q20 8 41 17q16 29 17 80q0 16 -2.5 49t-2.5 49q2 10 11 31q27 16 116 16h33q139 0 162 -53l-57 -236l8 -22q31 -20 94 -60q47 -41 47 -100v-63q2 -10 2 -25q2 -227 -104 -227q-115 0 -115 211v36q0 6 2 35l4 72 q4 80 -57 80q-90 0 -158 -223q-55 -182 -55 -295q0 -184 141 -185q74 0 164 13l164 22l39 -22l4 -11q-14 -45 -162 -81q-98 -25 -106 -31q-12 -35 -13 -70q0 -16 3 -47t3 -47q0 -49 -82 -49q-172 0 -172 84q0 20 9.5 62t9.5 63q-4 12 -12 45q-115 74 -162 112 q-70 57 -70 209z" />
<glyph unicode="&#xa3;" d="M80 797q10 29 115 51q72 12 141 24l37 215q10 57 26 148q55 250 322 250q92 0 209 -41q139 -49 166 -113q-18 -35 -43 -35q-29 0 -138 27q-51 12 -86 12q-182 0 -182 -417q0 -23 10 -58q31 -8 127 -18q170 -16 199 -39l8 -25q-39 -39 -256 -39h-73l-29 -16 q-6 -6 -17 -199q-2 -41 -4 -141q-2 -57 0 -84l4 -96q33 -45 162 -45q-14 0 22 2t109 6h37q59 0 123 -31q78 -37 78 -88q0 -33 -199 -49q-129 -10 -258 -18q-117 -14 -196 -15q-66 0 -124.5 64.5t-58.5 130.5q0 88 29 317q14 115 14 193q0 59 -118 75q-133 18 -156 52z" />
<glyph unicode="&#xa4;" d="M90 1120l16 31q147 86 185 86q31 0 71 -49q21 -25 60 -74q240 -51 334 -51q23 0 86 72q72 80 86 88q125 -47 170 -156q-31 -39 -90 -117q59 -174 59 -248q0 -66 -16 -127l-35 -131q12 -25 43 -55q70 -70 82 -94q-12 -31 -62 -84q-53 -59 -80 -59q-25 0 -71 45 q-57 55 -70 61q-127 -29 -184 -29q-41 0 -119 16.5t-119 16.5q-23 0 -61.5 -64.5t-44.5 -64.5q-53 0 -120 52.5t-67 103.5q0 12 35 86q-59 123 -59 217q0 92 26 188q18 70 60 181zM322 584q0 -117 62 -186.5t177 -69.5q139 0 223 123q74 106 74 254q0 293 -252 292 q-141 0 -219 -143q-65 -116 -65 -270z" />
<glyph unicode="&#xa5;" d="M94 834q8 12 89 31.5t96 29.5q-16 55 -64 145l-80 152q-2 2 -18 41q0 43 116 84q70 25 154 39l33 -27l86 -420l33 -14q88 0 172 14q31 45 69 205q10 41 47 213q27 20 142 21q23 0 63.5 -27t52.5 -47q-10 -33 -28 -76l-86 -209q-18 -43 -29 -76l131 -41q47 -14 47 -41 q-20 -29 -106 -40l-29 -5q-27 -2 -94 -14q-18 -25 -35 -67l-31 -78l141 -30q140 -30 169 -65q-20 -29 -170 -45q-170 -20 -197 -32q-33 -68 -33 -353v-102q-47 -20 -203 -20q-12 0 -43 10q-14 31 -14 86q0 27 5 78t5 77q0 164 -45 218q-135 12 -176 18q-115 16 -155 65 q12 23 151 43q133 18 133 39q0 27 -55 131q-23 12 -127 33q-86 16 -117 56zM549 743q0 -27 22 -84q25 -63 43 -63q29 0 35 61q27 98 27 93q-6 4 -21 10l-75 -6q-31 -2 -31 -11z" />
<glyph unicode="&#xa6;" horiz-adv-x="1024" d="M385 313h254v-653h-254v653zM385 657v709h254v-709h-254z" />
<glyph unicode="&#xa7;" horiz-adv-x="1091" d="M96 502q0 78 58 143q6 10 32 35l80 76q-53 88 -53 211q0 141 96 286q106 160 246 160q131 0 270 -65q168 -80 168 -199v-53q0 -111 -18 -162q-29 -80 -117 -80q-104 0 -104 180q0 66 8 115v33q0 123 -76 123q-90 0 -166 -152q-66 -131 -65 -238q0 -135 139 -196 q74 -31 260 -111q141 -61 141 -192q0 -86 -61 -135q-45 -37 -60 -64l74 -82q25 -35 25 -115q0 -127 -116 -238.5t-243 -111.5q-123 0 -258 58q-168 72 -168 176q0 238 127 237q11 0 64 -16q55 -53 55 -115q0 -20 -5 -62t-5 -63q0 -117 72 -116q88 0 168.5 94t80.5 184 q0 88 -200 152q-33 10 -279 77q-170 78 -170 226zM334 485q0 -92 166 -161l245 -78q76 33 76 145q0 123 -153 174q-131 45 -248 82q-86 -72 -86 -162z" />
<glyph unicode="&#xa8;" horiz-adv-x="1024" d="M170 1143q0 51 47 82q41 27 94 26q121 1 121 -151q0 -109 -131 -109t-131 152zM588 1143q0 51 45 82q39 27 94 26q123 1 123 -151q0 -109 -131 -109t-131 152z" />
<glyph unicode="&#xa9;" horiz-adv-x="1652" d="M68 621q0 328 196 563q207 250 529 250q338 0 557 -183q233 -196 233 -528q0 -371 -190.5 -573.5t-558.5 -202.5q-336 0 -541 166q-225 180 -225 508zM207 610q0 -246 190 -403q178 -150 428 -150q291 0 461 172t170 463q0 301 -196 467q-182 156 -490 156 q-246 0 -412 -234q-151 -213 -151 -471zM473 592q0 162 51 321q72 223 197 224l96 -27q154 -43 176 -55q72 -41 72 -250q0 -72 -76 -72q-102 0 -102 148v24q0 16 3 47t3 47q4 41 -35 41q-82 0 -147 -200q-53 -164 -54 -275q0 -186 142 -186q61 0 217 51q76 25 129 25 q35 0 35 -27q0 -51 -144 -102q-121 -43 -190 -43q-373 0 -373 309z" />
<glyph unicode="&#xaa;" horiz-adv-x="657" d="M49 702q0 90 137 132q33 10 209 32l13 19q0 106 -78 106q-41 0 -94 -41q-84 -63 -119 -92q-18 0 -32.5 20.5t-14.5 39.5q0 47 100 106q92 57 145 57q18 -2 86 -16q117 -25 144 -53q35 -37 35 -152v-43q0 -6 -2 -35l-9 -131q0 -14 5.5 -43.5t5.5 -44.5q0 -43 -84 -43 q-18 0 -57.5 18.5t-47.5 18.5q-23 0 -65.5 -4t-65.5 -4q-78 0 -139 37q-72 43 -72 116zM170 676q0 -35 119 -35q98 0 119 33q4 12 4 20q0 37 -2 41q-6 20 -31 21q-49 0 -119 -21q-90 -26 -90 -59z" />
<glyph unicode="&#xab;" horiz-adv-x="1013" d="M55 457q0 23 146 213q139 182 178 219q16 14 35 14q43 0 84 -16q53 -21 53 -56q0 -16 -21 -30q-55 -29 -155 -139q-106 -115 -119 -168q33 -66 130 -168.5t130 -161.5q-8 -37 -67 -64q-49 -23 -95 -22q-53 0 -176 159.5t-123 219.5zM465 457q0 23 143 211 q137 180 178 221q14 14 35 14q43 0 84 -16q53 -21 53 -56q0 -6 -86 -88l-96 -92q-100 -117 -110 -157q29 -61 165 -207q59 -63 95 -123q-8 -37 -66 -64q-49 -23 -94 -22q-51 0 -176 160.5t-125 218.5z" />
<glyph unicode="&#xac;" horiz-adv-x="1024" d="M68 362v224h886v-586h-245v362h-641z" />
<glyph unicode="&#xad;" horiz-adv-x="716" d="M0 623q0 78 8 96q14 43 76 43q29 0 84 -5t84 -5q61 0 137 4l154 8q39 2 82 2q92 0 92 -125q0 -143 -51 -143q-31 0 -92.5 4t-92.5 4q-125 0 -264 -19q-20 -2 -75.5 -21.5t-78.5 -19.5q-63 0 -63 177z" />
<glyph unicode="&#xae;" horiz-adv-x="1652" d="M68 621q0 328 196 563q207 250 529 250q338 0 557 -183q233 -196 233 -528q0 -371 -190.5 -573.5t-558.5 -202.5q-336 0 -541 166q-225 180 -225 508zM207 610q0 -246 190 -403q178 -150 428 -150q291 0 461 172t170 463q0 301 -196 467q-182 156 -490 156 q-246 0 -412 -234q-151 -213 -151 -471zM444 1040q37 41 222 41h41q444 1 444 -237q0 -88 -64 -150q-10 -10 -135 -96q23 -31 178 -145q70 -51 78 -72q-35 -78 -94 -78q-68 51 -156 109q-168 109 -229 108q-39 0 -39 -67q0 -49 12 -113q0 -41 -55 -41h-47q-49 0 -76 8 q-14 14 -14 31q0 -6 12 117q2 20 2 32q0 -8 -3 80t-3 185v71q0 37 2 74q-6 90 -53 121q-18 12 -23 22zM694 682q0 -27 33 -27q92 0 168 60q84 63 84 151q0 82 -51 109q-35 18 -125 18q-92 0 -101 -37q0 -23 0 -22q-8 -131 -8 -201v-51z" />
<glyph unicode="&#xaf;" horiz-adv-x="1024" d="M240 1128q0 74 86 74q20 0 59 -5t59 -5q47 0 181 4l133 4q82 2 82 -59q0 -80 -82 -80q-20 0 -59.5 4t-59.5 4q-182 0 -313 -25l-33 -6q-53 0 -53 90z" />
<glyph unicode="&#xb0;" horiz-adv-x="774" d="M68 1055q0 135 94 227t229 92q131 0 223.5 -93t92.5 -224q0 -137 -91.5 -229.5t-228.5 -92.5q-135 0 -227 92.5t-92 227.5zM197 1055q0 -82 54 -138.5t136 -56.5q78 0 134.5 57.5t56.5 135.5q0 82 -56.5 138t-138.5 56q-78 0 -132 -57t-54 -135z" />
<glyph unicode="&#xb1;" d="M170 156q0 53 18.5 71.5t71.5 18.5l727 -2q70 0 70 -92q0 -84 -37 -84h-109q-53 0 -156.5 2t-156.5 2h-104q-55 0 -110.5 -2t-59.5 -2q-135 2 -148 41q-6 18 -6 47zM209 723q0 98 106 98q12 0 74 -6l41 -4q20 -2 33 -2q39 0 54 11t15 50q0 29 -12 119q-10 74 -10 121 q0 41 141 41q96 0 97 -57q0 -37 -7 -95l-10 -94q-2 -23 -2 -49l4 -27q16 -18 60 -16l49 2h121q57 0 57 -94q0 -90 -98 -90q-23 0 -67 5t-67 5q-39 0 -51 -13.5t-12 -52.5q0 12 20 -202q2 -20 3 -35q0 -37 -76 -37h-15q-6 0 -14 -2h-20q-72 0 -93 49l15 121v61q0 63 -15 101 l-32 8q-39 0 -115 -18.5t-115 -18.5q-59 0 -59 121z" />
<glyph unicode="&#xb2;" horiz-adv-x="829" d="M86 1100q0 109 103.5 210t211.5 101q113 0 215 -47q127 -59 127 -160q0 -141 -153 -299l-228 -233q14 -20 154 -21q18 0 78 8l45 7q14 2 33 2q37 0 37 -54q0 -74 -91 -73q-12 0 -37.5 2t-37.5 2q27 0 -303 -15q-47 -2 -80 -2q-63 0 -64 50q0 47 117 167q141 147 219 240 q119 141 119 246q0 84 -80 84q-82 0 -162 -88l-139 -193q-27 0 -55.5 20.5t-28.5 45.5z" />
<glyph unicode="&#xb3;" horiz-adv-x="829" d="M29 643q0 45 67 62q29 -8 88 -43q39 -23 142 -23q80 0 176 45q119 55 119 123q0 96 -148 96q-39 0 -88 -14q-119 -35 -141 -35q-63 0 -64 84l6 43q0 31 78 41q49 6 170 84q135 86 135 151q0 49 -80 50q-96 0 -233 -62q-61 -29 -121 -63q-23 0 -41 16t-18 39q0 51 143 113 q129 55 193 55q104 0 204 -37q133 -49 134 -135q0 -72 -76 -141q-12 -12 -135 -101q86 -29 153 -76q92 -63 92 -131q0 -121 -133 -196q-111 -63 -243 -64q-90 0 -213 25q-166 33 -166 94z" />
<glyph unicode="&#xb4;" horiz-adv-x="968" d="M317 987q0 18 33 45q18 14 80 82q137 150 143 150q33 6 68 6h23q108 0 108 -23q-18 -29 -121 -117q-113 -96 -139 -129q-18 -31 -63 -30h-103q-29 0 -29 16z" />
<glyph unicode="&#xb6;" d="M37 862q0 266 111.5 382t375.5 116q170 0 355 -17q276 -25 305 -65q-6 -14 -68.5 -41t-75.5 -47q-43 -70 -43 -703v-182q0 -78 9 -194q18 -262 18 -322q0 -51 -162 -51q-6 0 -43 8q-10 2 -14 4l-23 31q20 80 21 514q0 838 -51 954l-39 17q-97 0 -97 -303q0 -197 11 -385 l22 -416q12 -227 13 -363q0 -35 -33 -53q-23 0 -94 -4l-72 -4q-66 -4 -66 51q0 80 9 199q18 266 18 336q0 39 -25 73q-98 6 -209 29q-78 31 -120 192q-33 123 -33 244z" />
<glyph unicode="&#xb7;" horiz-adv-x="546" d="M170 492q0 53 47 86q41 29 98 28q127 0 127 -160q0 -113 -137 -112q-135 0 -135 158z" />
<glyph unicode="&#xb8;" horiz-adv-x="1024" d="M324 -256q0 51 48 93t101 42q59 0 94 -37t35 -96q0 -84 -39 -154q-47 -86 -123 -86q-33 0 -32 27q0 8 4 21q12 35 12 47l-49 45q-51 47 -51 98z" />
<glyph unicode="&#xb9;" horiz-adv-x="829" d="M209 1225q0 20 121 102t149 82q102 0 103 -70q0 -59 -9 -149q-18 -201 -18 -252q0 8 6 -213l4 -147q2 -39 -100 -39q-113 0 -113 51q0 -16 15 196q2 29 2 52l2 305q-1 45 -19 55q-2 0 -28.5 -18.5t-32.5 -18.5q-27 0 -54.5 19.5t-27.5 44.5z" />
<glyph unicode="&#xba;" horiz-adv-x="651" d="M55 756q0 74 25 172q31 123 74 149q27 16 75 17q19 -1 78 -13q205 -43 213 -49q78 -43 78 -207q0 -127 -47 -204q-57 -96 -176 -97q-319 0 -320 232zM225 750q0 -162 97 -162q59 0 94 92q25 66 24 143q0 188 -100 189q-61 0 -92 -107q-23 -77 -23 -155z" />
<glyph unicode="&#xbb;" horiz-adv-x="1040" d="M55 137q10 18 195 225q80 90 80 111q0 20 -72 102q-180 207 -184 218l4 8l94 55q53 31 104 31q32 -1 46 -21q33 -43 124 -186q104 -160 105 -170q0 -12 -139 -188q-51 -66 -97 -119l-104 -125l-31 -12q-96 23 -125 71zM492 137q12 20 196 225q80 90 80 111q0 25 -117 152 q-129 141 -139 168l2 8q143 86 201 86q27 -1 45 -21q27 -53 78 -125l84 -120q66 -102 65 -111q0 -12 -139 -188q-51 -66 -96 -119l-105 -125l-29 -12q-90 16 -126 71z" />
<glyph unicode="&#xbc;" horiz-adv-x="1961" d="M209 1225q0 20 121 102t149 82q102 0 103 -70q0 -59 -9 -149q-18 -201 -18 -252q0 8 6 -213l4 -147q2 -39 -100 -39q-113 0 -113 51q0 -16 15 196q2 29 2 52l2 305q-1 45 -19 55q-2 0 -28.5 -18.5t-32.5 -18.5q-27 0 -54.5 19.5t-27.5 44.5zM594 150q0 37 211 452 q172 340 252 485q174 319 205 334q55 -42 106 -155q-12 -57 -49 -123q-20 -33 -68 -119l-483 -913l-31 -93q-8 -29 -20 -38q-123 70 -123 170zM1149 240q0 55 25 79q147 147 231 259l188 247q29 37 172 37q76 0 76 -55q0 -31 -20 -125q-2 -6 -21 -211q-8 -90 -8 -129 q0 -27 59.5 -51.5t59.5 -63.5q0 -47 -53 -45q-14 0 -27 2h-19q-33 0 -32 -65q0 -18 6 -52t6 -53q0 -37 -102 -37h-17q-8 0 -16 3h-19q-43 0 -43 30q0 59 13 146l-21 18l-168 2q-35 0 -80 -6q-127 -18 -135 -18q-55 0 -55 88zM1348 313q0 -25 49 -22l209 8q18 10 16 23l-2 81 q0 16 4 99l4 76q4 63 -14 63q-35 -35 -62 -70l-61 -79q-41 -49 -143 -179z" />
<glyph unicode="&#xbd;" horiz-adv-x="1961" d="M209 1225q0 20 121 102t149 82q102 0 103 -70q0 -59 -9 -149q-18 -201 -18 -252q0 8 6 -213l4 -147q2 -39 -100 -39q-113 0 -113 51q0 -16 15 196q2 29 2 52l2 305q-1 45 -19 55q-2 0 -28.5 -18.5t-32.5 -18.5q-27 0 -54.5 19.5t-27.5 44.5zM594 150q0 37 211 452 q172 340 252 485q174 319 205 334q55 -42 106 -155q-12 -57 -49 -123q-20 -33 -68 -119l-483 -913l-31 -93q-8 -29 -20 -38q-123 70 -123 170zM1217 553q0 109 103 210t212 101q113 0 215 -47q127 -59 127 -160q0 -139 -152 -295l-163 -167q-55 -55 -66 -70q8 -18 109 -19 h45q-6 0 122 13q20 2 33 2q35 0 35 -53q0 -70 -84 -70h-41q-51 2 -39 2h-74q-35 0 -69 -2l-242 -14q-61 -4 -61 47q0 43 116 168l154 163q33 35 66 76q119 147 118 246q0 84 -79 84q-82 0 -162 -88q-23 -33 -70 -96l-72 -97q-25 0 -53 20.5t-28 45.5z" />
<glyph unicode="&#xbe;" horiz-adv-x="1959" d="M29 643q0 45 67 62q29 -8 88 -43q39 -23 142 -23q80 0 176 45q119 55 119 123q0 96 -148 96q-39 0 -88 -14q-119 -35 -141 -35q-63 0 -64 84l6 43q0 31 78 41q49 6 170 84q135 86 135 151q0 49 -80 50q-96 0 -233 -62q-61 -29 -121 -63q-23 0 -41 16t-18 39q0 51 143 113 q129 55 193 55q104 0 204 -37q133 -49 134 -135q0 -72 -76 -141q-12 -12 -135 -101q86 -29 153 -76q92 -63 92 -131q0 -121 -133 -196q-111 -63 -243 -64q-90 0 -213 25q-166 33 -166 94zM649 150q0 37 211 452q172 340 252 485q174 319 205 334q55 -42 106 -155 q-12 -61 -49 -125q-20 -33 -67 -117l-109 -201l-377 -712q-16 -45 -51 -131q-121 74 -121 170zM1149 242q0 39 8 55q0 12 117 139q76 84 131 142q90 117 188 247q27 37 172 37q76 0 76 -55q0 -31 -20 -125q-2 -6 -21 -211q-8 -90 -8 -129q0 -27 59.5 -51.5t59.5 -63.5 q0 -47 -53 -45q-14 0 -27 2h-19q-33 0 -32 -65q0 -18 6 -52t6 -53q0 -37 -102 -37h-17q-8 0 -16 3h-19q-43 0 -43 30q0 25 6.5 73t6.5 73l-21 18l-168 2q-35 0 -80 -6q-127 -18 -135 -18q-55 0 -55 90zM1348 313q0 -25 49 -22l209 8q18 10 16 23l-2 81q0 16 4 99l4 76 q4 63 -14 63q-33 -29 -136 -157t-130 -171z" />
<glyph unicode="&#xbf;" horiz-adv-x="1112" d="M41 -72q0 139 147 293q20 23 107 111l168 174q150 156 149 244q0 14 -24.5 42.5t-28.5 38.5l21 25q31 12 157 12h45q61 0 86 -6q50 -12 50 -55q0 -186 -154 -356q-88 -94 -262 -285q-178 -203 -178 -313q0 -74 82 -74q109 0 262 92q162 96 194 195l17 71q6 31 18 70 q49 12 51 14q31 8 53 8q72 0 72 -63q0 -180 -151 -354q-158 -182 -334 -183q-135 0 -326 86q-221 100 -221 213zM492 1059q0 51 83 76q61 18 125 18q115 0 166 -14q103 -29 103 -107q0 -109 -221 -108q-72 0 -154 32q-102 41 -102 103z" />
<glyph unicode="&#xc0;" horiz-adv-x="1226" d="M-12 20q53 184 252 697q96 246 125 348q12 53 41 172q14 55 51 164q29 16 61 16q18 0 205 -31q98 -16 201 -40l16 -27l-12 -62q-6 -31 -6 -61q0 -225 192 -807q43 -133 127 -354q-23 -47 -178 -47q-100 0 -133 43q-6 76 -19 104q-20 57 -75 58q-51 0 -153.5 -6.5 t-154.5 -6.5h-90q-10 2 -18 2h-10q-94 2 -130 -35.5t-36 -134.5l-23 -41l-43 -12q-45 0 -180 41zM358 393q0 -45 138 -43q31 0 36 2h41q231 0 232 39l-92 316q-25 98 -49 194q-37 145 -54 146q-20 0 -159 -367q-92 -244 -93 -287zM397 1753q0 23 203 23q23 0 43 -4l8 -25 q6 -37 64 -113q27 -37 73 -92l11 -12q20 -25 24 -31q0 -16 -32 -16h-62q-92 0 -113 6l-79 104q-20 18 -86 74q-53 45 -54 86z" />
<glyph unicode="&#xc1;" horiz-adv-x="1226" d="M-12 20q53 184 252 697q96 246 125 348q12 53 41 172q14 55 51 164q29 16 61 16q18 0 205 -31q98 -16 201 -40l16 -27l-12 -62q-6 -31 -6 -61q0 -225 192 -807q43 -133 127 -354q-23 -47 -178 -47q-100 0 -133 43q-6 76 -19 104q-20 57 -75 58q-51 0 -153.5 -6.5 t-154.5 -6.5h-90q-10 2 -18 2h-10q-94 2 -130 -35.5t-36 -134.5l-23 -41l-43 -12q-45 0 -180 41zM358 393q0 -45 138 -43q31 0 36 2h41q231 0 232 39l-92 316q-25 98 -49 194q-37 145 -54 146q-20 0 -159 -367q-92 -244 -93 -287zM504 1491q0 14 139 147l43 41q31 29 100 95 q10 2 25 2h33q133 -1 133 -21q-18 -31 -309 -272q-25 -6 -70 -6h-66q-29 0 -28 14z" />
<glyph unicode="&#xc2;" horiz-adv-x="1226" d="M-12 20q53 184 252 697q96 246 125 348q12 53 41 172q14 55 51 164q29 16 61 16q18 0 205 -31q98 -16 201 -40l16 -27l-12 -62q-6 -31 -6 -61q0 -225 192 -807q43 -133 127 -354q-23 -47 -178 -47q-100 0 -133 43q-6 76 -19 104q-20 57 -75 58q-51 0 -153.5 -6.5 t-154.5 -6.5h-90q-10 2 -18 2h-10q-94 2 -130 -35.5t-36 -134.5l-23 -41l-43 -12q-45 0 -180 41zM225 1497q12 16 127 115q139 119 158 145q14 20 29 27q29 4 84 4h22q168 0 195 -23l100 -139q43 -59 84 -98q6 -10 25 -31q0 -18 -209 -18q-16 0 -31 8q-37 72 -68 125 q-51 92 -84 92q-16 0 -223 -225q-10 -2 -35 -4l-30 -2h-21q-37 0 -112 16zM358 393q0 -45 138 -43q31 0 36 2h41q231 0 232 39l-92 316q-25 98 -49 194q-37 145 -54 146q-20 0 -159 -367q-92 -244 -93 -287z" />
<glyph unicode="&#xc3;" horiz-adv-x="1226" d="M-12 20q53 184 252 697q96 246 125 348q12 53 41 172q14 55 51 164q29 16 61 16q18 0 205 -31q98 -16 201 -40l16 -27l-12 -62q-6 -31 -6 -61q0 -225 192 -807q43 -133 127 -354q-23 -47 -178 -47q-100 0 -133 43q-6 76 -19 104q-20 57 -75 58q-51 0 -153.5 -6.5 t-154.5 -6.5h-90q-10 2 -18 2h-10q-94 2 -130 -35.5t-36 -134.5l-23 -41l-43 -12q-45 0 -180 41zM338 1573q0 78 76 131q70 49 149 49q45 0 151.5 -56.5t153.5 -56.5q41 0 70 62q14 31 35 31q16 0 33.5 -14.5t17.5 -30.5q0 -61 -62.5 -126t-121.5 -65q-51 0 -182.5 59.5 t-159.5 59.5q-33 0 -73 -49t-38 -49q-18 0 -33.5 17t-15.5 38zM358 393q0 -45 138 -43q31 0 36 2h41q231 0 232 39l-92 316q-25 98 -49 194q-37 145 -54 146q-20 0 -159 -367q-92 -244 -93 -287z" />
<glyph unicode="&#xc4;" horiz-adv-x="1226" d="M-12 20q53 184 252 697q96 246 125 348q12 53 41 172q14 55 51 164q29 16 61 16q18 0 205 -31q98 -16 201 -40l16 -27l-12 -62q-6 -31 -6 -61q0 -225 192 -807q43 -133 127 -354q-23 -47 -178 -47q-100 0 -133 43q-6 76 -19 104q-20 57 -75 58q-51 0 -153.5 -6.5 t-154.5 -6.5h-90q-10 2 -18 2h-10q-94 2 -130 -35.5t-36 -134.5l-23 -41l-43 -12q-45 0 -180 41zM315 1657q0 51 50 84q43 29 98 28q129 1 129 -159q0 -115 -139 -115q-137 0 -138 162zM358 393q0 -45 138 -43q31 0 36 2h41q231 0 232 39l-92 316q-25 98 -49 194 q-37 145 -54 146q-20 0 -159 -367q-92 -244 -93 -287zM756 1657q0 51 49 84q43 29 98 28q127 1 127 -159q0 -115 -137 -115t-137 162z" />
<glyph unicode="&#xc5;" horiz-adv-x="1226" d="M-12 20q53 184 252 697q96 246 125 348q12 53 41 172q14 55 51 164q29 16 61 16q18 0 205 -31q98 -16 201 -40l16 -27l-12 -62q-6 -31 -6 -61q0 -225 192 -807q43 -133 127 -354q-23 -47 -178 -47q-100 0 -133 43q-6 76 -19 104q-20 57 -75 58q-51 0 -153.5 -6.5 t-154.5 -6.5h-90q-10 2 -18 2h-10q-94 2 -130 -35.5t-36 -134.5l-23 -41l-43 -12q-45 0 -180 41zM358 393q0 -45 138 -43q31 0 36 2h41q231 0 232 39l-92 316q-25 98 -49 194q-37 145 -54 146q-20 0 -159 -367q-92 -244 -93 -287zM520 1616q0 55 51.5 148.5t100.5 93.5 q41 0 190 -66q58 -24 58 -94q0 -74 -46 -146q-51 -82 -120 -82q-63 0 -142 41q-92 49 -92 105zM643 1587q0 -68 49 -67q51 0 84 79q29 66 29 125q0 63 -51 64q-45 0 -80 -80q-31 -68 -31 -121z" />
<glyph unicode="&#xc6;" horiz-adv-x="1648" d="M-66 41q74 211 164 383l76 145q35 59 113 230l245 602q29 14 72 14q205 0 461 -20q88 -6 461 -43q100 -10 100 -58q0 -41 -229 -63l-295 -29q-18 -25 -41 -227q-18 -168 -19 -250q6 -18 17 -53q76 -33 221 -37q162 -4 223 -23q45 -31 45 -77l-35 -39q-139 0 -458 -31 q-33 -27 -33 -59q0 -135 10 -193l41 -39q23 -8 57 -8q16 0 49 3t50 3q123 2 223 -12q162 -23 197 -68l-17 -35q-66 -37 -313 -49q-125 -6 -338 -6q-86 0 -152.5 49t-89.5 131l-24 6h-78q-6 0 -68 2l-143 5q-86 2 -121 -39q-55 -92 -117 -191l-24 -6q-76 0 -217 57zM373 385 q0 -39 123 -35q20 0 36 2h54q16 0 51 2t51 2h37l14 17v26q0 119 6.5 354.5t6.5 354.5l-2 16q-35 -29 -152 -245q-225 -422 -225 -494z" />
<glyph unicode="&#xc7;" horiz-adv-x="1150" d="M41 508q0 154 33 338q111 621 364 620l158 -45q209 -59 276 -98q84 -47 107 -143q18 -78 18 -293q0 -41 -20 -80q-39 -33 -88 -33q-160 0 -160 254q0 -12 10 211q2 33 -16 61.5t-49 28.5q-150 0 -262 -371q-90 -297 -90 -497q0 -352 245 -352q102 0 224 36 q338 102 360 105l33 -17l8 -18q-33 -94 -240 -176q-174 -70 -307 -70q-604 0 -604 539zM387 -276q0 51 48 94t100 43q131 0 131 -135q0 -82 -39 -154q-45 -86 -121 -86q-37 0 -37 27q0 10 9 33.5t9 33.5q0 -4 -50 45t-50 99z" />
<glyph unicode="&#xc8;" horiz-adv-x="1036" d="M55 1335l29 27l127 4q100 4 403 -14q70 -2 211 -11q176 -14 176 -69t-323 -64q-39 0 -103 -4q-102 -8 -122 -71q-8 -86 -17 -175q-18 -174 -18 -256q0 -68 102 -79q35 -4 123 -5q121 0 174 -12q88 -20 107 -94q-18 -51 -232 -51h-155q-141 0 -142 -78v-80q0 -115 49 -139 q20 -10 183 -17q57 0 209 -10q188 -18 188 -65q0 -68 -315 -82l-138 -6q-45 -2 -129 -2h-92q-88 0 -149 51q-23 18 -74 76q-14 70 -14 223v51q0 25 2 72t2 71v271q2 12 2 20q4 391 -64 518zM195 1753q0 23 200 23q29 0 45 -4l9 -25q12 -63 102 -168l70 -80q0 -16 -33 -16 h-62q-94 0 -112 6l-80 104q-20 18 -86 74q-53 45 -53 86z" />
<glyph unicode="&#xc9;" horiz-adv-x="1036" d="M55 1335l29 27l127 4q100 4 403 -14q70 -2 211 -11q176 -14 176 -69t-323 -64q-39 0 -103 -4q-102 -8 -122 -71q-8 -86 -17 -175q-18 -174 -18 -256q0 -68 102 -79q35 -4 123 -5q121 0 174 -12q88 -20 107 -94q-18 -51 -232 -51h-155q-141 0 -142 -78v-80q0 -115 49 -139 q20 -10 183 -17q57 0 209 -10q188 -18 188 -65q0 -68 -315 -82l-138 -6q-45 -2 -129 -2h-92q-88 0 -149 51q-23 18 -74 76q-14 70 -14 223v51q0 25 2 72t2 71v271q2 12 2 20q4 391 -64 518zM287 1491q0 8 141 147q78 76 143 136q10 2 25 2h31q135 -1 135 -21 q-16 -23 -131 -121q-27 -25 -101.5 -90t-111.5 -65q-10 -2 -21 -2h-82q-29 0 -28 14z" />
<glyph unicode="&#xca;" horiz-adv-x="1036" d="M55 1335l29 27l127 4q100 4 403 -14q70 -2 211 -11q176 -14 176 -69t-323 -64q-39 0 -103 -4q-102 -8 -122 -71q-8 -86 -17 -175q-18 -174 -18 -256q0 -68 102 -79q35 -4 123 -5q121 0 174 -12q88 -20 107 -94q-18 -51 -232 -51h-155q-141 0 -142 -78v-80q0 -115 49 -139 q20 -10 183 -17q57 0 209 -10q188 -18 188 -65q0 -68 -315 -82l-138 -6q-45 -2 -129 -2h-92q-88 0 -149 51q-23 18 -74 76q-14 70 -14 223v51q0 25 2 72t2 71v271q2 12 2 20q4 391 -64 518zM131 1497q12 16 127 115q139 119 158 145q14 20 28 27q29 4 84 4h23q168 0 194 -23 l101 -139q49 -68 84 -98q10 -8 26 -31q0 -18 -211 -18q-16 0 -30 8q-37 72 -68 125q-51 92 -84 92q-16 0 -223 -225q-10 -2 -35 -4l-31 -2h-20q-37 0 -113 16z" />
<glyph unicode="&#xcb;" horiz-adv-x="1036" d="M55 1335l29 27l127 4q100 4 403 -14q70 -2 211 -11q176 -14 176 -69t-323 -64q-39 0 -103 -4q-102 -8 -122 -71q-8 -86 -17 -175q-18 -174 -18 -256q0 -68 102 -79q35 -4 123 -5q121 0 174 -12q88 -20 107 -94q-18 -51 -232 -51h-155q-141 0 -142 -78v-80q0 -115 49 -139 q20 -10 183 -17q57 0 209 -10q188 -18 188 -65q0 -68 -315 -82l-138 -6q-45 -2 -129 -2h-92q-88 0 -149 51q-23 18 -74 76q-14 70 -14 223v51q0 25 2 72t2 71v271q2 12 2 20q4 391 -64 518zM127 1657q0 51 49 84q43 29 96 28q129 1 129 -159q0 -115 -137 -115t-137 162z M565 1657q0 51 49 84q43 29 99 28q127 1 127 -159q0 -115 -138 -115q-137 0 -137 162z" />
<glyph unicode="&#xcc;" horiz-adv-x="591" d="M12 1753q0 23 203 23q23 0 43 -4l8 -25q6 -37 64 -113q27 -37 73 -92l11 -12q20 -25 24 -31q0 -16 -32 -16h-62q-92 0 -113 6l-79 104q-20 18 -86 74q-53 45 -54 86zM117 1364l8 18q78 27 154 27q88 0 114 -4q82 -12 82 -49q0 -57 -22.5 -172t-22.5 -172.5t-8 -274.5 q-6 -162 -6 -268q0 -217 22 -434l-18 -25q-106 -16 -154 -16q-86 0 -131 26l-8 37q0 127 6 289l19 485q2 63 -11 201q-25 268 -24 332z" />
<glyph unicode="&#xcd;" horiz-adv-x="591" d="M117 1364l8 18q78 27 154 27q88 0 114 -4q82 -12 82 -49q0 -57 -22.5 -172t-22.5 -172.5t-8 -274.5q-6 -162 -6 -268q0 -217 22 -434l-18 -25q-106 -16 -154 -16q-86 0 -131 26l-8 37q0 127 6 289l19 485q2 63 -11 201q-25 268 -24 332zM119 1532q0 14 139 147l43 41 q31 29 100 95q10 2 25 2h33q133 -1 133 -21q-18 -27 -88 -86l-121 -102q-63 -53 -100 -84q-25 -6 -70 -6h-66q-29 0 -28 14z" />
<glyph unicode="&#xce;" horiz-adv-x="591" d="M-88 1497q63 55 129 117l152 143q25 31 112 31h23q168 0 194 -23l101 -139q49 -68 84 -98q10 -8 26 -31q0 -18 -209 -18q-18 0 -32 8q-37 72 -68 125q-51 92 -84 92q-16 0 -223 -225q-10 -2 -35 -4l-31 -2h-20q-29 0 -39 2q-20 4 -72 14zM117 1364l8 18q78 27 154 27 q88 0 114 -4q82 -12 82 -49q0 -57 -22.5 -172t-22.5 -172.5t-8 -274.5q-6 -162 -6 -268q0 -217 22 -434l-18 -25q-106 -16 -154 -16q-86 0 -131 26l-8 37q0 127 6 289l19 485q2 63 -11 201q-25 268 -24 332z" />
<glyph unicode="&#xcf;" horiz-adv-x="591" d="M0 1657q0 53 47 86q43 27 98 26q127 1 127 -159q0 -115 -137 -115q-135 0 -135 162zM117 1364l8 18q78 27 154 27q88 0 114 -4q82 -12 82 -49q0 -57 -22.5 -172t-22.5 -172.5t-8 -274.5q-6 -162 -6 -268q0 -217 22 -434l-18 -25q-106 -16 -154 -16q-86 0 -131 26l-8 37 q0 127 6 289l19 485q2 63 -11 201q-25 268 -24 332zM328 1657q0 51 49 84q43 29 98 28q129 1 129 -159q0 -115 -139 -115q-137 0 -137 162z" />
<glyph unicode="&#xd0;" horiz-adv-x="1304" d="M0 659q20 29 92 44.5t82 23.5q10 45 10 51v213q0 16 2 35q2 133 -16 242q-23 20 -49 63l20 29q96 20 211 20q328 0 582 -131q315 -162 315 -461q0 -297 -205 -559q-219 -281 -505 -280q-39 0 -162 43q-57 20 -103 20q-100 0 -100 295q0 86 10 230q-6 14 -14 28 q-78 16 -98 27q-51 23 -72 67zM438 356q-4 -201 107 -200q178 0 313 252q117 217 117 415q0 166 -76 279q-86 131 -244 131q-111 0 -149 -74q-29 -53 -29 -172v-98q0 -10 -2 -21l-6 -57q-2 -18 -2 -25q0 -27 22 -43q12 4 25 5q258 0 258 -89q0 -33 -106 -51 q-84 -14 -138 -20q-84 -23 -84 -76v-35q0 -23 -3 -62.5t-3 -58.5z" />
<glyph unicode="&#xd1;" horiz-adv-x="1193" d="M96 1348l21 32q74 12 213 13h67q104 0 105 -33q0 -12 -5 -39t-5 -39q0 -115 128 -470t199 -443q45 63 45 391v49q0 319 -33 618q39 49 127 50q39 0 115 -15q23 -18 25 -45q-53 -166 -54 -514q0 -111 9 -336l18 -506q2 -33 -49 -63q-43 -27 -80 -27q-152 0 -283 197 q-80 121 -184 387q-92 238 -127 270q-33 -41 -33 -426q0 -72 15 -227q8 -88 8 -137l-12 -25q-119 -16 -168 -16q-12 0 -28.5 15.5t-18.5 27.5q6 39 8 125l2 82v710q0 260 -25 394zM254 1573q0 78 76 131q70 49 149 49q45 0 151.5 -56.5t153.5 -56.5q39 0 68 62q14 31 37 31 q16 0 33.5 -14.5t17.5 -30.5q0 -61 -62.5 -126t-121.5 -65q-51 0 -182.5 59.5t-159.5 59.5q-33 0 -73 -49t-38 -49q-18 0 -33.5 17t-15.5 38z" />
<glyph unicode="&#xd2;" horiz-adv-x="1206" d="M55 596q0 236 84 489q113 340 295 340q31 0 195 -43q305 -45 422 -204q104 -145 104 -463q0 -268 -78 -457q-106 -258 -336 -258q-403 0 -528 90q-158 115 -158 506zM344 586q0 -182 41 -320q61 -205 201 -205q176 0 258 267q55 180 55 413q0 537 -256 537 q-160 0 -242 -279q-57 -194 -57 -413zM389 1753q0 23 201 23q27 0 43 -4q8 -27 22 -64q6 -14 47 -74q68 -76 113 -135q0 -16 -33 -16h-61q-94 0 -113 6l-80 104q-25 20 -86 74q-53 45 -53 86z" />
<glyph unicode="&#xd3;" horiz-adv-x="1206" d="M55 596q0 236 84 489q113 340 295 340q31 0 195 -43q305 -45 422 -204q104 -145 104 -463q0 -268 -78 -457q-106 -258 -336 -258q-403 0 -528 90q-158 115 -158 506zM344 586q0 -182 41 -320q61 -205 201 -205q176 0 258 267q55 180 55 413q0 537 -256 537 q-160 0 -242 -279q-57 -194 -57 -413zM494 1491q0 8 141 147q78 76 143 136q10 2 25 2h31q135 -1 135 -21q-23 -35 -312 -272q-23 -6 -67 -6h-68q-29 0 -28 14z" />
<glyph unicode="&#xd4;" horiz-adv-x="1206" d="M55 596q0 236 84 489q113 340 295 340q31 0 195 -43q305 -45 422 -204q104 -145 104 -463q0 -268 -78 -457q-106 -258 -336 -258q-403 0 -528 90q-158 115 -158 506zM217 1497q2 4 127 115q29 29 106.5 102.5t114.5 73.5h70q165 0 194 -23q80 -109 187 -237q6 -10 24 -31 q0 -18 -209 -18q-23 0 -30 8q-37 72 -68 125q-51 92 -84 92q-23 0 -114 -100q-23 -27 -111 -125q-16 -6 -45 -6h-39q-37 0 -115 16zM344 586q0 -182 41 -320q61 -205 201 -205q176 0 258 267q55 180 55 413q0 537 -256 537q-160 0 -242 -279q-57 -194 -57 -413z" />
<glyph unicode="&#xd5;" horiz-adv-x="1206" d="M55 596q0 236 84 489q113 340 295 340q31 0 195 -43q305 -45 422 -204q104 -145 104 -463q0 -268 -78 -457q-106 -258 -336 -258q-403 0 -528 90q-158 115 -158 506zM301 1573q0 78 76 131q70 49 149 49q45 0 151.5 -56.5t153.5 -56.5q39 0 68 62q14 31 37 31 q16 0 33.5 -14.5t17.5 -30.5q0 -61 -62.5 -126t-121.5 -65q-51 0 -182.5 59.5t-159.5 59.5q-33 0 -53 -24l-60 -74q-18 0 -32.5 18t-14.5 37zM344 586q0 -182 41 -320q61 -205 201 -205q176 0 258 267q55 180 55 413q0 537 -256 537q-160 0 -242 -279q-57 -194 -57 -413z " />
<glyph unicode="&#xd6;" horiz-adv-x="1206" d="M55 596q0 236 84 489q113 340 295 340q31 0 195 -43q305 -45 422 -204q104 -145 104 -463q0 -268 -78 -457q-106 -258 -336 -258q-403 0 -528 90q-158 115 -158 506zM307 1657q0 51 49 84q43 29 99 28q127 1 127 -159q0 -115 -138 -115q-137 0 -137 162zM344 586 q0 -182 41 -320q61 -205 201 -205q176 0 258 267q55 180 55 413q0 537 -256 537q-160 0 -242 -279q-57 -194 -57 -413zM745 1657q0 51 50 84q43 29 98 28q129 1 129 -159q0 -115 -139 -115q-137 0 -138 162z" />
<glyph unicode="&#xd7;" horiz-adv-x="1024" d="M131 594q0 31 84 111q23 23 51 30q33 10 51 -2q12 -8 125 -160q23 -31 27 -34l20 -17q25 -6 56 25l33 33l92 84q16 14 32 14q33 0 74 -45q27 -31 27 -60q0 -39 -39 -71q-4 -4 -84 -64l-25 -18q-29 -29 -28 -45q0 -27 139 -150q72 -63 72 -80q0 -20 -39 -57l-33 -31 q-37 -35 -76 -34q-16 0 -31 6l-67 98l-43 47q-41 45 -78 66l-29 -19q-20 -16 -57 -65l-57 -76q-37 -49 -64 -49q-39 0 -92 59q-29 33 -29 68q0 39 43 80q33 25 117 88q31 25 33 45q2 33 -111 129q-57 49 -88 80q-6 6 -6 14z" />
<glyph unicode="&#xd8;" horiz-adv-x="1261" d="M68 57q0 29 33.5 91.5t33.5 72.5q0 49 -16 123q-41 182 -41 221q0 133 33 312q100 547 344 546q102 0 262 -53l258 -86q16 8 54 56.5t58 58.5q41 -16 93.5 -63.5t74.5 -88.5q-6 -25 -118 -198q0 -41 26 -207q12 -76 13 -129q0 -266 -78 -455q-106 -258 -336 -258 q-283 0 -416 27q-25 -23 -43 -58q-10 -20 -27 -69l-22 -13q-186 70 -186 170zM367 602l2 -92q37 47 133 168l354 446q0 59 -64.5 106.5t-125.5 47.5q-158 0 -240 -270q-63 -211 -59 -406zM455 172q0 -49 53 -82q47 -29 100 -29q186 0 264 295q47 178 48 447 q-27 -31 -146 -185q-319 -413 -319 -446z" />
<glyph unicode="&#xd9;" horiz-adv-x="1236" d="M96 684q0 74 10 297l9 178q2 37 -19 164q27 31 84 31h72q10 2 16 2h11q102 4 161 -25l17 -31q-53 -285 -54 -577v-88q0 -238 35 -361q57 -203 215 -202q147 0 207 190q37 119 37 352v72q0 8 -2 19v22q0 217 -4 334q-8 238 -35 313q45 39 174 39q57 0 100 -18l13 -21 q0 -154 -4 -291l-19 -614q0 -43 -6 -160q-33 -319 -377 -319q-266 0 -401 37q-240 66 -240 657zM406 1753q0 23 200 23q27 0 43 -4q8 -8 8 -25q6 -37 64 -113q27 -37 74 -92l10 -12q20 -25 24 -31q4 -16 -30 -16h-62q-94 0 -114 6q-29 45 -78 104q-84 104 -125 142 q-14 12 -14 18z" />
<glyph unicode="&#xda;" horiz-adv-x="1236" d="M96 684q0 74 10 297l9 178q2 37 -19 164q27 31 84 31h72q10 2 16 2h11q102 4 161 -25l17 -31q-53 -285 -54 -577v-88q0 -238 35 -361q57 -203 215 -202q147 0 207 190q37 119 37 352v72q0 8 -2 19v22q0 217 -4 334q-8 238 -35 313q45 39 174 39q57 0 100 -18l13 -21 q0 -154 -4 -291l-19 -614q0 -43 -6 -160q-33 -319 -377 -319q-266 0 -401 37q-240 66 -240 657zM442 1491q0 6 115 121q104 104 170 162q10 2 23 2h32q133 -1 133 -21q-59 -70 -307 -272q-23 -6 -69 -6h-68q-29 0 -29 14z" />
<glyph unicode="&#xdb;" horiz-adv-x="1236" d="M96 684q0 74 10 297l9 178q2 37 -19 164q27 31 84 31h72q10 2 16 2h11q102 4 161 -25l17 -31q-53 -285 -54 -577v-88q0 -238 35 -361q57 -203 215 -202q147 0 207 190q37 119 37 352v72q0 8 -2 19v22q0 217 -4 334q-8 238 -35 313q45 39 174 39q57 0 100 -18l13 -21 q0 -154 -4 -291l-19 -614q0 -43 -6 -160q-33 -319 -377 -319q-266 0 -401 37q-240 66 -240 657zM233 1497q2 2 127 115l105 94q41 37 53 51q16 29 64 29h24q12 0 23 2h22q168 0 195 -23q35 -47 186 -237l25 -31q0 -18 -209 -18q-23 0 -31 8q-37 72 -67 125q-51 92 -86 92 q-16 0 -224 -225q-10 -2 -34 -4l-31 -2h-21q-35 0 -112 16z" />
<glyph unicode="&#xdc;" horiz-adv-x="1236" d="M96 684q0 74 10 297l9 178q2 37 -19 164q27 31 84 31h72q10 2 16 2h11q102 4 161 -25l17 -31q-53 -285 -54 -577v-88q0 -238 35 -361q57 -203 215 -202q147 0 207 190q37 119 37 352v72q0 8 -2 19v22q0 217 -4 334q-8 238 -35 313q45 39 174 39q57 0 100 -18l13 -21 q0 -154 -4 -291l-19 -614q0 -43 -6 -160q-33 -319 -377 -319q-266 0 -401 37q-240 66 -240 657zM268 1657q0 51 49 84q43 29 99 28q127 1 127 -159q0 -115 -137 -115t-138 162zM707 1657q0 51 49 84q43 29 98 28q129 1 129 -159q0 -115 -139 -115q-137 0 -137 162z" />
<glyph unicode="&#xdd;" horiz-adv-x="1191" d="M-53 1292q39 49 139 76q6 2 166 33l20 -15q76 -199 142 -346q121 -272 192 -272q61 39 211 285q129 213 184 338q27 20 84 20q96 0 162 -74q-45 -88 -170 -245q-63 -78 -188 -238q-164 -213 -164 -594q0 -53 29 -246q-39 -35 -189 -34h-59q-16 0 -66 18l-16 27 q0 43 8 108q18 147 19 182q0 236 -103 390l-225 337q-33 51 -123 170q-49 66 -53 80zM418 1491q0 8 141 147q78 76 143 136q10 2 25 2h31q135 -1 135 -21q-16 -23 -131 -121q-27 -25 -101.5 -90t-111.5 -65q-10 -2 -21 -2h-82q-29 0 -28 14z" />
<glyph unicode="&#xde;" horiz-adv-x="1173" d="M96 1352l4 14l107 33h115q61 0 110 -23l23 -33l-19 -118q229 0 346 -27q353 -80 353 -465q0 -377 -238 -418q-14 -2 -66 -8l-79 -10q-92 -12 -326 -41q-20 -35 -20 -102q2 -16 14 -134l-21 -22l-143 -18h-25q-125 0 -125 63q0 129 7 291l18 485q2 61 -10 199 q-25 270 -25 334zM401 567q0 -90 7 -110q33 -104 225 -105q121 0 196 150q63 125 64 260q0 137 -59 244q-70 129 -197 129q-146 -1 -199 -58q-37 -39 -37 -403v-107z" />
<glyph unicode="&#xdf;" horiz-adv-x="1093" d="M80 928q-2 250 41 372q68 199 250 199q240 0 352 -55q170 -84 170 -291q0 -90 -72 -156q-117 -80 -133 -94q-70 -63 -70 -139q0 -162 123 -250l230 -115q123 -61 123 -151q0 -78 -82 -163t-160 -85q-104 0 -234 29q-176 39 -176 108q0 35 23.5 69t56.5 34h21 q70 -61 104 -82q66 -39 127 -39q49 0 87 44t38 95q0 47 -121 94q-160 61 -227 123q-125 113 -125 311q0 90 59 140q6 6 43 32l66 48q59 55 59 151q0 201 -94 201q-227 0 -227 -584v-88q0 -8 2 -18v-144q0 -330 55 -491q-23 -35 -215 -35q-55 0 -76 18q-14 12 -14 78z" />
<glyph unicode="&#xe0;" horiz-adv-x="948" d="M39 254q0 131 149 188l209 41q104 20 209 43q10 16 10 37q0 78 -30 131q-37 66 -111 66q-72 0 -149 -68l-187 -162l-26 11q-33 35 -41 80q35 86 164 174t221 88q27 0 135 -25q170 -39 223 -100.5t53 -233.5q0 33 -14 -282q-2 -45 -2 -74q0 -27 7 -78t7 -78q0 -53 -86 -53 h-37q-68 0 -131 59l-16 2q14 0 -180 -14q-27 -2 -49 -2q-127 0 -220 59q-109 70 -108 191zM203 203q0 -68 196 -68q39 0 107 15q80 16 98.5 33.5t18.5 90.5q0 84 -58 84q-82 0 -184 -32q-117 -37 -160 -88q-18 -23 -18 -35zM211 1245q0 23 199 23q29 0 41 -4l10 -25 q4 -29 22 -57l35 -54q49 -76 92 -110l19 -23q0 -16 -33 -16h-127q-39 0 -70 37q-70 104 -163 203q-25 12 -25 26z" />
<glyph unicode="&#xe1;" horiz-adv-x="948" d="M39 254q0 131 149 188l209 41q104 20 209 43q10 16 10 37q0 78 -30 131q-37 66 -111 66q-72 0 -149 -68l-187 -162l-26 11q-33 35 -41 80q35 86 164 174t221 88q27 0 135 -25q170 -39 223 -100.5t53 -233.5q0 33 -14 -282q-2 -45 -2 -74q0 -27 7 -78t7 -78q0 -53 -86 -53 h-37q-68 0 -131 59l-16 2q14 0 -180 -14q-27 -2 -49 -2q-127 0 -220 59q-109 70 -108 191zM203 203q0 -68 196 -68q39 0 107 15q80 16 98.5 33.5t18.5 90.5q0 84 -58 84q-82 0 -184 -32q-117 -37 -160 -88q-18 -23 -18 -35zM307 989q0 12 236 256q25 25 59 25h51 q111 -1 111 -21q-23 -33 -125 -123q-31 -31 -96 -90q-74 -66 -105 -65h-100q-31 0 -31 18z" />
<glyph unicode="&#xe2;" horiz-adv-x="948" d="M39 254q0 131 149 188l209 41q104 20 209 43q10 16 10 37q0 78 -30 131q-37 66 -111 66q-72 0 -149 -68l-187 -162l-26 11q-33 35 -41 80q35 86 164 174t221 88q27 0 135 -25q170 -39 223 -100.5t53 -233.5q0 33 -14 -282q-2 -45 -2 -74q0 -27 7 -78t7 -78q0 -53 -86 -53 h-37q-68 0 -131 59l-16 2q14 0 -180 -14q-27 -2 -49 -2q-127 0 -220 59q-109 70 -108 191zM143 1012q10 18 123 125q8 6 49 55l66 76q20 4 47 4h37q119 0 141 -10q13 -7 60 -103q16 -27 53 -76l24 -26q4 -6 15 -17l20 -28q0 -16 -127 -17h-37q-35 0 -51 47l-6 19 q-6 16 -22 55q-37 82 -58 82q-14 -8 -65 -92l-60 -96q-12 -20 -108 -21q-14 2 -92 15zM203 203q0 -68 196 -68q39 0 107 15q80 16 98.5 33.5t18.5 90.5q0 84 -58 84q-82 0 -184 -32q-117 -37 -160 -88q-18 -23 -18 -35z" />
<glyph unicode="&#xe3;" horiz-adv-x="948" d="M39 254q0 131 149 188l209 41q104 20 209 43q10 16 10 37q0 78 -30 131q-37 66 -111 66q-72 0 -149 -68l-187 -162l-26 11q-33 35 -41 80q35 86 164 174t221 88q27 0 135 -25q170 -39 223 -100.5t53 -233.5q0 33 -14 -282q-2 -45 -2 -74q0 -27 7 -78t7 -78q0 -53 -86 -53 h-37q-68 0 -131 59l-16 2q14 0 -180 -14q-27 -2 -49 -2q-127 0 -220 59q-109 70 -108 191zM147 1065q0 74 74 125q66 47 141 47q41 0 179 -72q66 -35 112 -35q27 0 57.5 43.5t41.5 43.5q49 0 49 -43q0 -55 -60.5 -118t-115.5 -63q-53 0 -173 55.5t-153 55.5q-29 0 -48 -23 l-56 -69q-18 0 -33 17.5t-15 35.5zM203 203q0 -68 196 -68q39 0 107 15q80 16 98.5 33.5t18.5 90.5q0 84 -58 84q-82 0 -184 -32q-117 -37 -160 -88q-18 -23 -18 -35z" />
<glyph unicode="&#xe4;" horiz-adv-x="948" d="M39 254q0 131 149 188l209 41q104 20 209 43q10 16 10 37q0 78 -30 131q-37 66 -111 66q-72 0 -149 -68l-187 -162l-26 11q-33 35 -41 80q35 86 164 174t221 88q27 0 135 -25q170 -39 223 -100.5t53 -233.5q0 33 -14 -282q-2 -45 -2 -74q0 -27 7 -78t7 -78q0 -53 -86 -53 h-37q-68 0 -131 59l-16 2q14 0 -180 -14q-27 -2 -49 -2q-127 0 -220 59q-109 70 -108 191zM133 1143q0 49 45 79.5t96 30.5q121 1 121 -153q0 -109 -131 -109t-131 152zM203 203q0 -68 196 -68q39 0 107 15q80 16 98.5 33.5t18.5 90.5q0 84 -58 84q-82 0 -184 -32 q-117 -37 -160 -88q-18 -23 -18 -35zM551 1143q0 49 45 79.5t96 30.5q121 1 121 -153q0 -109 -131 -109t-131 152z" />
<glyph unicode="&#xe5;" horiz-adv-x="948" d="M39 254q0 131 149 188l209 41q104 20 209 43q10 16 10 37q0 78 -30 131q-37 66 -111 66q-72 0 -149 -68l-187 -162l-26 11q-33 35 -41 80q35 86 164 174t221 88q27 0 135 -25q170 -39 223 -100.5t53 -233.5q0 33 -14 -282q-2 -45 -2 -74q0 -27 7 -78t7 -78q0 -53 -86 -53 h-37q-68 0 -131 59l-16 2q14 0 -180 -14q-27 -2 -49 -2q-127 0 -220 59q-109 70 -108 191zM203 203q0 -68 196 -68q39 0 107 15q80 16 98.5 33.5t18.5 90.5q0 84 -58 84q-82 0 -184 -32q-117 -37 -160 -88q-18 -23 -18 -35zM293 1085q0 45 49 124t90 79q23 0 107 -28 q49 -16 65 -25q53 -25 53 -82q0 -63 -45 -125q-47 -68 -108 -67q-57 0 -129 34q-82 39 -82 90zM408 1061q0 -59 43 -60q45 0 73 68q25 55 25 109q0 55 -45 55q-43 0 -72 -68q-24 -55 -24 -104z" />
<glyph unicode="&#xe6;" horiz-adv-x="1460" d="M39 262q0 188 313 234q68 8 248 32q6 14 10 25l6 20q0 82 -28 140q-37 76 -111 75q-74 0 -254 -155l-55 -68q-20 -25 -29 -26l-28 10q-31 41 -39 80q27 92 161 184t232 92q45 0 131 -30.5t131 -30.5q127 70 227 69q176 0 303 -79q150 -95 150 -261q0 -158 -57 -251 q-70 -117 -217 -117q-55 0 -140 16q-115 23 -139 25l-29 -33q0 -143 207 -143q53 0 127 16q61 16 123 31q47 10 64 10q61 0 61 -35q0 -41 -156 -84q-133 -37 -196 -37q-96 0 -185 33l-176 66q-49 0 -152.5 -39t-154.5 -39q-133 0 -233 67q-115 76 -115 203zM203 207 q0 -84 196 -84q217 0 222 127q0 20 2 22v17q0 78 -58 78q-88 0 -209 -39q-153 -49 -153 -121zM850 432q0 -59 55 -96q49 -35 111 -35q86 0 137 131q41 106 41 207q0 63 -33 115q-37 59 -98 59q-78 0 -150 -156q-63 -139 -63 -225z" />
<glyph unicode="&#xe7;" horiz-adv-x="839" d="M47 324q0 174 70 338q90 213 237 212q31 0 72 -10q12 -4 70 -26l204 -78q70 -49 70 -228v-40q0 -158 -104 -158q-117 0 -117 256v53q0 109 -55 109q-86 0 -150 -215q-51 -172 -51 -293q0 -201 149 -201q86 0 344 68l29 -13l10 -20q0 -51 -161 -92q-147 -37 -213 -37 q-207 0 -301 82q-102 90 -103 293zM231 -256q0 51 48.5 93t101.5 42q59 0 94 -37t35 -96q0 -84 -39 -154q-47 -86 -123 -86q-33 0 -33 27q0 8 4 23q12 39 13 45l-49 45q-51 47 -52 98z" />
<glyph unicode="&#xe8;" horiz-adv-x="921" d="M47 330q0 129 53 284q72 209 174 256q45 20 136 21q174 0 301 -82q149 -94 149 -258q0 -156 -57 -252q-70 -119 -215 -119q-51 0 -174 27q-68 14 -107 14q-27 0 -26 -31q0 -143 206 -143q53 0 119 16q164 41 193 41q61 0 61 -34q0 -37 -153 -82q-133 -39 -203 -39 q-457 0 -457 381zM197 1245q0 23 198 23q29 0 41 -4l10 -25q4 -29 23 -57l35 -54q49 -76 92 -110l18 -23q0 -16 -32 -16h-127q-39 0 -70 37q-14 27 -45 71q-63 90 -119 132q-25 12 -24 26zM301 416q0 -61 53 -101q47 -35 113 -34q86 0 137 131q43 109 43 206q0 68 -33 117 q-37 57 -100 58q-78 0 -149 -154q-64 -137 -64 -223z" />
<glyph unicode="&#xe9;" horiz-adv-x="921" d="M47 330q0 129 53 284q72 209 174 256q45 20 136 21q174 0 301 -82q149 -94 149 -258q0 -156 -57 -252q-70 -119 -215 -119q-51 0 -174 27q-68 14 -107 14q-27 0 -26 -31q0 -143 206 -143q53 0 119 16q164 41 193 41q61 0 61 -34q0 -37 -153 -82q-133 -39 -203 -39 q-457 0 -457 381zM293 989q0 12 235 256q25 25 60 25h51q111 -1 111 -21q-12 -16 -84 -84l-115 -106q-20 -18 -96 -84q-12 -4 -31 -4h-100q-31 0 -31 18zM301 416q0 -61 53 -101q47 -35 113 -34q86 0 137 131q43 109 43 206q0 68 -33 117q-37 57 -100 58q-78 0 -149 -154 q-64 -137 -64 -223z" />
<glyph unicode="&#xea;" horiz-adv-x="921" d="M47 330q0 129 53 284q72 209 174 256q45 20 136 21q174 0 301 -82q149 -94 149 -258q0 -156 -57 -252q-70 -119 -215 -119q-51 0 -174 27q-68 14 -107 14q-27 0 -26 -31q0 -143 206 -143q53 0 119 16q164 41 193 41q61 0 61 -34q0 -37 -153 -82q-133 -39 -203 -39 q-457 0 -457 381zM158 1012q10 18 123 125q8 6 49 55l65 76q20 4 37 4h47q119 0 142 -10q12 -7 59 -103q16 -27 53 -76l25 -26q4 -6 14 -17l19 -28q0 -16 -127 -17h-35q-37 0 -39 19q-10 33 -43 102q-39 82 -55 82q-27 -12 -105 -149q-27 -45 -47 -54q-12 -6 -82 -6 q-14 2 -92 15zM301 416q0 -61 53 -101q47 -35 113 -34q86 0 137 131q43 109 43 206q0 68 -33 117q-37 57 -100 58q-78 0 -149 -154q-64 -137 -64 -223z" />
<glyph unicode="&#xeb;" horiz-adv-x="921" d="M47 330q0 129 53 284q72 209 174 256q45 20 136 21q174 0 301 -82q149 -94 149 -258q0 -156 -57 -252q-70 -119 -215 -119q-51 0 -174 27q-68 14 -107 14q-27 0 -26 -31q0 -143 206 -143q53 0 119 16q164 41 193 41q61 0 61 -34q0 -37 -153 -82q-133 -39 -203 -39 q-457 0 -457 381zM121 1143q0 51 43 80.5t96 29.5q121 1 121 -153q0 -109 -131 -109q-129 0 -129 152zM301 416q0 -61 53 -101q47 -35 113 -34q86 0 137 131q43 109 43 206q0 68 -33 117q-37 57 -100 58q-78 0 -149 -154q-64 -137 -64 -223zM537 1143q0 49 45 79.5t96 30.5 q121 1 121 -153q0 -109 -131 -109t-131 152z" />
<glyph unicode="&#xec;" horiz-adv-x="540" d="M6 1245q0 23 199 23q29 0 41 -4l10 -25q4 -29 23 -57l34 -54q31 -47 52 -71q10 -8 38 -39l21 -23q0 -16 -33 -16h-127q-55 0 -117 108q-39 53 -116 132q-25 12 -25 26zM96 836q0 43 166 43h35q131 -1 131 -58q0 -63 -25 -241q0 -43 -4 -170l-4 -127q-2 -37 11 -95 q25 -121 24 -155q0 -35 -115 -35h-47q-63 0 -92 4q-51 12 -51 43q0 20 12 88q6 33 6 57q0 299 -20 469q-2 18 -8 66q-18 104 -19 111z" />
<glyph unicode="&#xed;" horiz-adv-x="540" d="M96 836q0 43 166 43h35q131 -1 131 -58q0 -63 -25 -241q0 -43 -4 -170l-4 -127q-2 -37 11 -95q25 -121 24 -155q0 -35 -115 -35h-47q-63 0 -92 4q-51 12 -51 43q0 20 12 88q6 33 6 57q0 299 -20 469q-2 18 -8 66q-18 104 -19 111zM102 989q0 14 37 45q104 113 228 234 q6 2 30 2h52q110 -1 110 -21q-10 -16 -82 -82l-213 -192q-12 -4 -31 -4h-100q-31 0 -31 18z" />
<glyph unicode="&#xee;" horiz-adv-x="540" d="M-57 1012q37 49 120 125l115 131q20 4 37 4h47q125 0 148 -17q8 -16 53 -96l55 -78q2 -6 37 -41l18 -28q0 -16 -127 -17h-34q-37 0 -39 19q-10 33 -43 102q-39 82 -58 82q-14 -8 -65 -92l-60 -96q-12 -20 -108 -21q-4 0 -90 15zM96 836q0 43 166 43h35q131 -1 131 -58 q0 -63 -25 -241q0 -43 -4 -170l-4 -127q-2 -37 11 -95q25 -121 24 -155q0 -35 -115 -35h-47q-63 0 -92 4q-51 12 -51 43q0 20 12 88q6 33 6 57q0 299 -20 469q-2 18 -8 66q-18 104 -19 111z" />
<glyph unicode="&#xef;" horiz-adv-x="540" d="M-14 1141q0 45 37.5 71.5t85.5 26.5q110 0 110 -137q0 -96 -117 -96t-116 135zM96 836q0 43 166 43h35q131 -1 131 -58q0 -63 -25 -241q0 -43 -4 -170l-4 -127q-2 -37 11 -95q25 -121 24 -155q0 -35 -115 -35h-47q-63 0 -92 4q-51 12 -51 43q0 20 12 88q6 33 6 57 q0 299 -20 469q-2 18 -8 66q-18 104 -19 111zM293 1141q0 45 39 71.5t86 26.5q110 0 110 -137q0 -96 -118 -96q-117 0 -117 135z" />
<glyph unicode="&#xf0;" horiz-adv-x="956" d="M55 326q0 231 101 401q123 207 336 207q10 0 28.5 -2t28.5 -2l-78 129q-53 85 -94 110q-150 -59 -211 -59q-39 0 -57 33q16 29 98 76t98 69q-14 20 -69 82q-49 55 -50 76l9 16l47 6q37 0 80 -30q111 -80 120 -84q27 6 84 20l82 19q63 0 92 -29l-161 -125q39 -78 151 -225 q106 -141 148 -226q63 -133 63 -303q0 -520 -344 -520q-211 0 -340 74q-162 92 -162 287zM301 324q0 -100 35 -179q45 -102 133 -102q104 0 164 164q43 119 43 254q0 121 -14 178q-29 115 -109 115q-123 0 -195 -162q-57 -131 -57 -268z" />
<glyph unicode="&#xf1;" horiz-adv-x="1042" d="M82 858q14 37 111 37h18q10 0 20 -2h23q29 0 145 -43q27 0 60 4l67 8q16 2 37 2q219 0 309.5 -85t90.5 -304q0 -74 -6.5 -221.5t-6.5 -220.5q0 -35 -131 -35q-150 0 -149 45q0 53 10 129q16 117 16 127q4 33 4 68v69q0 152 -20 223q-35 123 -129 123q-211 0 -211 -549 q0 -96 16 -202l-16 -29l-37 -6q-6 -2 -35 -2h-32q-145 0 -146 57q0 57 12.5 172t12.5 172v58q0 254 -33 405zM195 1065q0 74 73 125q66 47 142 47q41 0 178 -72q66 -35 110 -35q27 0 60 43.5t41 43.5q49 0 49 -43q0 -55 -60.5 -118t-115.5 -63q-53 0 -173 55.5t-153 55.5 q-29 0 -48 -23l-56 -69q-18 0 -32.5 17.5t-14.5 35.5z" />
<glyph unicode="&#xf2;" horiz-adv-x="942" d="M47 344q0 113 41 287q49 207 111 248q37 25 112 24q35 0 379 -72q129 -27 174 -137q31 -74 31 -233q0 -199 -72 -330q-90 -166 -272 -166q-504 0 -504 379zM236 1245q0 23 198 23q29 0 41 -4q14 -14 45 -78q35 -74 47.5 -93.5t26.5 -35.5q10 -8 39 -39l20 -23 q0 -16 -35 -16h-126q-35 0 -70 39q-8 10 -45 69q-63 78 -117 132q-25 12 -24 26zM295 332q0 -106 33 -185q43 -104 135 -104q104 0 162 162q43 121 43 252q0 334 -174 334q-104 0 -160 -185q-39 -129 -39 -274z" />
<glyph unicode="&#xf3;" horiz-adv-x="942" d="M47 344q0 113 41 287q49 207 111 248q37 25 112 24q35 0 379 -72q129 -27 174 -137q31 -74 31 -233q0 -199 -72 -330q-90 -166 -272 -166q-504 0 -504 379zM295 332q0 -106 33 -185q43 -104 135 -104q104 0 162 162q43 121 43 252q0 334 -174 334q-104 0 -160 -185 q-39 -129 -39 -274zM344 989q0 12 236 256q25 25 59 25h51q111 -1 111 -21q-23 -33 -125 -123q-31 -31 -96 -90q-74 -66 -105 -65h-100q-31 0 -31 18z" />
<glyph unicode="&#xf4;" horiz-adv-x="942" d="M47 344q0 113 41 287q49 207 111 248q37 25 112 24q35 0 379 -72q129 -27 174 -137q31 -74 31 -233q0 -199 -72 -330q-90 -166 -272 -166q-504 0 -504 379zM182 1012q10 18 123 125q8 6 49 55l66 76q20 4 37 4h47q119 0 141 -10q13 -7 60 -103q20 -29 92 -119l18 -28 q0 -16 -127 -17h-35q-37 0 -39 19q-10 33 -43 102q-39 82 -55 82q-18 -12 -92 -131q-23 -39 -34 -58.5t-109 -19.5q-14 2 -93 15zM295 332q0 -106 33 -185q43 -104 135 -104q104 0 162 162q43 121 43 252q0 334 -174 334q-104 0 -160 -185q-39 -129 -39 -274z" />
<glyph unicode="&#xf5;" horiz-adv-x="942" d="M47 344q0 113 41 287q49 207 111 248q37 25 112 24q35 0 379 -72q129 -27 174 -137q31 -74 31 -233q0 -199 -72 -330q-90 -166 -272 -166q-504 0 -504 379zM145 1065q0 74 72 125q66 47 141 47q47 0 181 -72q66 -35 110 -35q29 0 72 60q18 27 27 27q49 0 49 -43 q0 -59 -58.5 -120t-115.5 -61q-51 0 -129 33q-182 78 -197 78q-33 0 -70 -45l-37 -47q-16 0 -30.5 18.5t-14.5 34.5zM295 332q0 -106 33 -185q43 -104 135 -104q104 0 162 162q43 121 43 252q0 334 -174 334q-104 0 -160 -185q-39 -129 -39 -274z" />
<glyph unicode="&#xf6;" horiz-adv-x="942" d="M47 344q0 113 41 287q49 207 111 248q37 25 112 24q35 0 379 -72q129 -27 174 -137q31 -74 31 -233q0 -199 -72 -330q-90 -166 -272 -166q-504 0 -504 379zM131 1143q0 51 43 80.5t96 29.5q123 1 123 -153q0 -109 -131 -109t-131 152zM295 332q0 -106 33 -185 q43 -104 135 -104q104 0 162 162q43 121 43 252q0 334 -174 334q-104 0 -160 -185q-39 -129 -39 -274zM549 1143q0 51 43 80.5t96 29.5q121 1 121 -153q0 -109 -131 -109q-129 0 -129 152z" />
<glyph unicode="&#xf7;" d="M209 684q0 55 14.5 74.5t67.5 19.5l665 -2q63 0 64 -94q0 -84 -35 -84q-47 0 -188 4l-142 4q-215 6 -362 -35q-6 -2 -25 -6q-59 0 -59 119zM465 1014q0 59 37 99t96 40q154 0 154 -113q0 -174 -131 -174q-156 0 -156 148zM489 401q0 76 33 105t109 29q49 0 72.5 -12.5 t52.5 -53.5q12 -29 12 -43q0 -66 -51 -119t-117 -53q-53 0 -84 49q-27 41 -27 98z" />
<glyph unicode="&#xf8;" horiz-adv-x="968" d="M68 348q0 109 41 283q49 209 110 248q35 23 113 22q55 0 163.5 -24.5t163.5 -24.5q27 0 52 31q61 78 67 82q45 -18 111 -109q0 -16 -16.5 -44t-30.5 -50l20 -64q2 -8 26.5 -89t24.5 -154q0 -195 -71 -326q-88 -164 -269 -164q-35 0 -172 31q-55 12 -100 12q-20 0 -53 -69 q-25 -51 -33 -54q-123 49 -123 125q0 10 19.5 49t19.5 43q-63 141 -63 246zM315 354q18 23 84 113l209 281q0 14 -39 28.5t-59 14.5q-98 0 -154 -177q-41 -131 -41 -260zM360 133q0 -33 43 -61.5t78 -28.5q104 0 164 166q47 131 41 256l-4 90l-135 -184l-76 -95 q-20 -25 -61 -71q-50 -58 -50 -72z" />
<glyph unicode="&#xf9;" horiz-adv-x="1005" d="M82 827q0 55 84 52q8 0 29 -2h18q72 0 94 -5q70 -12 70 -49q0 -70 -15 -172q-18 -135 -22 -172q-6 -61 -6 -92q0 -129 14 -188q29 -117 119 -117q182 0 182 278q0 51 -20 279q-10 115 -11 170l9 22q39 18 159 19h39q86 0 86 -51q0 -84 -6 -189l-10 -188q-4 -100 -4 -109 q0 -119 4 -147q6 -45 43 -139q-35 -61 -123 -62q-27 0 -84 21.5t-86 21.5q-18 0 -80 -4l-61 -4q-272 -18 -361 129q-49 82 -49 387q0 51 -6 155.5t-6 155.5zM240 1245q0 23 198 23q29 0 41 -4l10 -25q4 -29 23 -57l35 -54q49 -76 92 -110l18 -23q0 -16 -32 -16h-127 q-39 0 -70 37q-14 27 -45 71q-63 90 -119 132q-25 12 -24 26z" />
<glyph unicode="&#xfa;" horiz-adv-x="1005" d="M82 827q0 55 84 52q8 0 29 -2h18q72 0 94 -5q70 -12 70 -49q0 -70 -15 -172q-18 -135 -22 -172q-6 -61 -6 -92q0 -129 14 -188q29 -117 119 -117q182 0 182 278q0 51 -20 279q-10 115 -11 170l9 22q39 18 159 19h39q86 0 86 -51q0 -84 -6 -189l-10 -188q-4 -100 -4 -109 q0 -119 4 -147q6 -45 43 -139q-35 -61 -123 -62q-27 0 -84 21.5t-86 21.5q-18 0 -80 -4l-61 -4q-272 -18 -361 129q-49 82 -49 387q0 51 -6 155.5t-6 155.5zM336 989q0 12 235 256q25 25 60 25h51q111 -1 111 -21q-12 -16 -84 -84l-115 -106q-20 -18 -96 -84q-12 -4 -31 -4 h-100q-31 0 -31 18z" />
<glyph unicode="&#xfb;" horiz-adv-x="1005" d="M82 827q0 55 84 52q8 0 29 -2h18q72 0 94 -5q70 -12 70 -49q0 -70 -15 -172q-18 -135 -22 -172q-6 -61 -6 -92q0 -129 14 -188q29 -117 119 -117q182 0 182 278q0 51 -20 279q-10 115 -11 170l9 22q39 18 159 19h39q86 0 86 -51q0 -84 -6 -189l-10 -188q-4 -100 -4 -109 q0 -119 4 -147q6 -45 43 -139q-35 -61 -123 -62q-27 0 -84 21.5t-86 21.5q-18 0 -80 -4l-61 -4q-272 -18 -361 129q-49 82 -49 387q0 51 -6 155.5t-6 155.5zM174 1012q8 27 123 125l113 131q20 4 47 4h37q135 -1 151 -19q8 -8 51 -94q27 -33 90 -119l21 -28q0 -16 -127 -17 h-35q-37 0 -39 19q-10 33 -43 102q-39 82 -57 82q-14 -8 -66 -92l-59 -96q-12 -20 -109 -21q-14 2 -92 15z" />
<glyph unicode="&#xfc;" horiz-adv-x="1005" d="M82 827q0 55 84 52q8 0 29 -2h18q72 0 94 -5q70 -12 70 -49q0 -70 -15 -172q-18 -135 -22 -172q-6 -61 -6 -92q0 -129 14 -188q29 -117 119 -117q182 0 182 278q0 51 -20 279q-10 115 -11 170l9 22q39 18 159 19h39q86 0 86 -51q0 -84 -6 -189l-10 -188q-4 -100 -4 -109 q0 -119 4 -147q6 -45 43 -139q-35 -61 -123 -62q-27 0 -84 21.5t-86 21.5q-18 0 -80 -4l-61 -4q-272 -18 -361 129q-49 82 -49 387q0 51 -6 155.5t-6 155.5zM164 1143q0 51 43 80.5t96 29.5q121 1 121 -153q0 -109 -131 -109q-129 0 -129 152zM580 1143q0 49 45 79.5 t96 30.5q121 1 121 -153q0 -109 -131 -109t-131 152z" />
<glyph unicode="&#xfd;" horiz-adv-x="1085" d="M68 -233q0 31 86 47q33 6 59 6q199 -182 309 -182q113 0 172 96q51 82 51 200q0 88 -53 89q-20 0 -49 -7q-63 -14 -90 -14q-285 0 -373 102q-66 76 -65 299v113q0 6 2 59q2 39 -6 101q-6 55 -10.5 96t-4.5 53q0 63 195 64q76 0 108 -51q-33 -176 -32 -422v-62 q0 -123 18 -182q31 -100 117 -100q156 0 198 125q23 66 23 252q0 260 -43 387q35 47 154 43l112 -5q10 -2 29 -10l14 -26l-4 -959q0 -156 -141 -241q-119 -74 -285 -74q-121 0 -283 47q-209 61 -208 156zM369 1137q0 8 141 147q78 76 143 135q10 2 25 2h31q135 0 135 -20 q-16 -23 -131 -121q-27 -25 -101.5 -90.5t-111.5 -65.5q-10 -2 -21 -2h-82q-29 0 -28 15z" />
<glyph unicode="&#xfe;" horiz-adv-x="1015" d="M84 1374q57 39 180 39q82 0 144 -22l6 -25q0 -47 -21 -272q-10 -113 -10 -164q0 -53 98 -53h58q8 0 16 2q236 0 330 -125q82 -111 82 -353q0 -250 -109 -333q-76 -57 -291 -58h-137q-80 0 -80 -198q1 -111 21 -170q-41 -39 -101 -39q-70 0 -98 6q-59 12 -78 51 q43 246 45 670l2 424q2 399 -57 620zM346 336q0 -260 174 -260q109 0 156 137q33 94 33 227q0 336 -166 336q-197 0 -197 -440z" />
<glyph unicode="&#xff;" horiz-adv-x="1085" d="M68 -233q0 31 86 47q33 6 59 6q199 -182 309 -182q113 0 172 96q51 82 51 200q0 88 -51 89q-23 0 -51 -7q-68 -14 -90 -14q-285 0 -373 102q-66 76 -65 299v113q0 6 2 59q2 39 -6 101q-6 55 -10.5 96t-4.5 53q0 63 195 64q78 0 108 -51q-33 -176 -32 -422v-62 q0 -123 18 -182q31 -100 117 -100q156 0 198 125q23 66 23 252q0 260 -43 387q33 47 154 43l114 -5l27 -10l16 -26v-359q0 -59 -2 -239l-4 -361q-2 -156 -141 -241q-119 -74 -285 -74q-121 0 -283 47q-209 61 -208 156zM203 1143q0 51 43 80.5t96 29.5q121 1 121 -153 q0 -109 -131 -109q-129 0 -129 152zM618 1143q0 49 45.5 79.5t96.5 30.5q121 1 121 -153q0 -109 -131 -109t-132 152z" />
<glyph unicode="&#x152;" horiz-adv-x="1726" d="M55 594q0 242 84 493q113 338 301 338q72 0 318 -69l10 20q20 6 86 8l55 2q96 4 178 3q215 -4 410 -23q57 -6 178 -35l29 -39q-29 -53 -324 -67q-78 -4 -200 -23q-18 -25 -41 -227q-18 -168 -19 -252q0 -10 8.5 -28.5t8.5 -22.5q74 -35 221 -37q158 -2 223 -25 q45 -31 45 -78l-35 -38q-492 0 -491 -91q0 -133 10 -190l41 -41q23 -8 55 -8q16 0 51 4t52 4q356 0 417 -80l-16 -35q-63 -39 -311 -51q-123 -6 -336 -6q-96 0 -139 37q-117 -43 -189 -43q-391 0 -520 98q-160 121 -160 502zM344 586q0 -188 39 -320q61 -205 203 -205 q84 0 158.5 79t74.5 165v174l-8 625q-2 174 -166 174t-244 -277q-57 -198 -57 -415z" />
<glyph unicode="&#x153;" horiz-adv-x="1499" d="M47 360q0 111 43 297q51 223 117 252q47 20 117 21q51 0 151 -21q68 -12 248 -45l53 -33l27 31q51 59 190 60q174 0 301 -80q150 -92 150 -258q0 -156 -58 -252q-70 -119 -215 -119q-55 0 -139 16q-115 23 -139 25l-29 -33q0 -141 207 -141q53 0 119 16q158 39 194 39 q59 0 60 -33q0 -41 -156 -84q-133 -37 -201 -36q-55 0 -164.5 39.5t-160.5 39.5l-76 -43q-43 -25 -135 -24q-215 0 -342 74q-162 94 -162 292zM295 358q0 -106 33 -184q43 -104 135 -104q102 0 162 163q43 119 43 252q0 332 -174 332q-104 0 -160 -184q-39 -130 -39 -275z M889 449q0 -61 49 -98.5t113 -37.5q86 0 137 131q43 109 43 205q0 66 -33 117q-37 59 -100 59q-80 0 -150 -151q-59 -129 -59 -225z" />
<glyph unicode="&#x178;" horiz-adv-x="1191" d="M-53 1292q39 49 139 76q6 2 166 33l20 -15q76 -199 142 -346q121 -272 192 -272q61 39 211 285q129 213 184 338q27 20 84 20q96 0 162 -74q-45 -88 -170 -245q-63 -78 -188 -238q-164 -213 -164 -594q0 -53 29 -246q-39 -35 -189 -34h-59q-16 0 -66 18l-16 27 q0 43 8 108q18 147 19 182q0 236 -103 390l-225 337q-33 51 -123 170q-49 66 -53 80zM299 1657q0 51 49 84q43 29 96 28q129 1 129 -159q0 -115 -139 -115q-135 0 -135 162zM737 1657q0 51 49 84q43 29 99 28q127 1 127 -159q0 -115 -138 -115q-137 0 -137 162z" />
<glyph unicode="&#x2c6;" horiz-adv-x="1024" d="M182 1012q20 20 62 63l61 62q20 20 115 131q20 4 37 4h47q137 0 149.5 -19.5t51.5 -93.5l57 -78q2 -8 35 -43l18 -26q0 -18 -162 -19q-25 0 -43 35l-22 55q-47 113 -74 113q-18 -18 -127 -188q-12 -18 -82 -19h-24q-43 0 -93 15z" />
<glyph unicode="&#x2dc;" horiz-adv-x="1024" d="M186 1065q0 70 74 123q68 49 139 49q37 0 143.5 -54.5t147.5 -54.5q29 0 58.5 44.5t39.5 44.5q49 0 50 -46q0 -55 -60.5 -116.5t-113.5 -61.5q-51 0 -129 33q-182 78 -197 78q-33 0 -70 -45l-37 -47q-45 0 -45 53z" />
<glyph unicode="&#x2000;" horiz-adv-x="929" />
<glyph unicode="&#x2001;" horiz-adv-x="1858" />
<glyph unicode="&#x2002;" horiz-adv-x="929" />
<glyph unicode="&#x2003;" horiz-adv-x="1858" />
<glyph unicode="&#x2004;" horiz-adv-x="619" />
<glyph unicode="&#x2005;" horiz-adv-x="464" />
<glyph unicode="&#x2006;" horiz-adv-x="309" />
<glyph unicode="&#x2007;" horiz-adv-x="309" />
<glyph unicode="&#x2008;" horiz-adv-x="232" />
<glyph unicode="&#x2009;" horiz-adv-x="371" />
<glyph unicode="&#x200a;" horiz-adv-x="103" />
<glyph unicode="&#x2010;" horiz-adv-x="716" d="M0 623q0 78 8 96q14 43 76 43q29 0 84 -5t84 -5q61 0 137 4l154 8q39 2 82 2q92 0 92 -125q0 -143 -51 -143q-31 0 -92.5 4t-92.5 4q-125 0 -264 -19q-20 -2 -75.5 -21.5t-78.5 -19.5q-63 0 -63 177z" />
<glyph unicode="&#x2011;" horiz-adv-x="716" d="M0 623q0 78 8 96q14 43 76 43q29 0 84 -5t84 -5q61 0 137 4l154 8q39 2 82 2q92 0 92 -125q0 -143 -51 -143q-31 0 -92.5 4t-92.5 4q-125 0 -264 -19q-20 -2 -75.5 -21.5t-78.5 -19.5q-63 0 -63 177z" />
<glyph unicode="&#x2012;" horiz-adv-x="716" d="M0 623q0 78 8 96q14 43 76 43q29 0 84 -5t84 -5q61 0 137 4l154 8q39 2 82 2q92 0 92 -125q0 -143 -51 -143q-31 0 -92.5 4t-92.5 4q-125 0 -264 -19q-20 -2 -75.5 -21.5t-78.5 -19.5q-63 0 -63 177z" />
<glyph unicode="&#x2013;" horiz-adv-x="1024" d="M84 621q0 66 10 88q16 37 74 36l700 -2q74 0 74 -125q0 -113 -39 -112q-57 0 -171 5t-171 5q-260 0 -375 -43q-33 -12 -41 -12q-33 0 -49 65q-12 47 -12 95z" />
<glyph unicode="&#x2014;" horiz-adv-x="1394" d="M0 571v35q0 70 10 94q18 45 74 45h373q12 0 352 -4l510 -6q76 0 76 -125q0 -16 -11 -90l-28 -22h-1272q-84 0 -84 73z" />
<glyph unicode="&#x2018;" horiz-adv-x="434" d="M41 1296q0 35 88 50q61 10 117 10q57 0 65 -8q31 -31 35 -111q2 -51 10 -123l37 -106q0 -51 -172 -52q-106 0 -139 195q-2 18 -23 76q-18 51 -18 69z" />
<glyph unicode="&#x2019;" horiz-adv-x="468" d="M59 1073l4 12q4 8 7 11q86 154 86 206t30 52q228 -1 228 -62q-8 -23 -35 -75l-90 -181q-18 -37 -47 -37t-103 27q-80 29 -80 47z" />
<glyph unicode="&#x201a;" horiz-adv-x="509" d="M76 -72l26 66q16 39 27 69l25 70q47 96 96 96q47 0 110 -16q80 -20 80 -59l-73 -138q-72 -135 -82 -139q-23 -10 -49 -10q-47 0 -93 12q-68 18 -67 49z" />
<glyph unicode="&#x201c;" horiz-adv-x="813" d="M41 1296q0 35 88 50q61 10 117 10q57 0 65 -8q31 -31 35 -111q2 -51 10 -123l37 -106q0 -51 -172 -52q-106 0 -139 195q-2 18 -23 76q-18 51 -18 69zM412 1317q0 33 77 51q59 14 107 14q80 0 109 -47q22 -37 22 -121q0 -41 45 -184q0 -47 -121 -47q-86 0 -118.5 29.5 t-53.5 115.5q-6 25 -37 107z" />
<glyph unicode="&#x201d;" horiz-adv-x="821" d="M41 1063q0 29 25 74q31 55 34 71l50 162q10 10 26 10q96 0 141 -8q102 -18 103 -67l-131 -281q-18 -41 -45 -41q-57 0 -146 37q-57 25 -57 43zM381 1018l31 72q59 139 112 249q20 16 49 17q61 0 123 -19q90 -27 90 -67l-81 -152q-8 -16 -52 -98q-35 -66 -73 -68 q-10 -2 -17 -2h-6q-45 0 -102 15q-74 18 -74 53z" />
<glyph unicode="&#x201e;" horiz-adv-x="821" d="M41 -41q0 29 25 74q33 55 36 71l48 160q10 10 26 10q96 0 141 -8q102 -18 103 -67l-131 -279q-18 -41 -45 -41q-57 0 -146 37q-57 25 -57 43zM381 -84l31 72q100 236 112 248q20 14 49 14q80 0 158 -31q55 -22 55 -53q-12 -25 -81 -152q-82 -152 -93 -155 q-23 -12 -55 -13q-51 0 -102 15q-74 20 -74 55z" />
<glyph unicode="&#x2022;" horiz-adv-x="1366" d="M401 692q0 123 82 205t205 82q117 0 199 -84t82 -201q0 -119 -83 -201.5t-202 -82.5t-201 81.5t-82 200.5z" />
<glyph unicode="&#x2026;" horiz-adv-x="1638" d="M170 152q0 53 47 86q41 29 98 28q127 0 127 -160q0 -111 -137 -110q-135 0 -135 156zM717 152q0 53 47 86q41 29 98 28q127 0 127 -160q0 -111 -137 -110q-135 0 -135 156zM1264 152q0 53 47 86q41 29 98 28q127 0 127 -160q0 -111 -137 -110q-135 0 -135 156z" />
<glyph unicode="&#x202f;" horiz-adv-x="371" />
<glyph unicode="&#x2039;" horiz-adv-x="604" d="M55 457q0 23 146 213q139 182 178 219q16 14 35 14q43 0 84 -16q53 -21 53 -56q0 -16 -21 -30q-55 -29 -155 -139q-106 -115 -119 -168q33 -66 130 -168.5t130 -161.5q-8 -37 -67 -64q-49 -23 -95 -22q-53 0 -176 159.5t-123 219.5z" />
<glyph unicode="&#x203a;" horiz-adv-x="602" d="M55 137q10 18 195 225q80 90 80 111q0 20 -72 102q-180 207 -184 218l4 8l94 55q53 31 104 31q32 -1 46 -21q33 -43 124 -186q104 -160 105 -170q0 -12 -139 -188q-51 -66 -97 -119l-104 -125l-31 -12q-96 23 -125 71z" />
<glyph unicode="&#x205f;" horiz-adv-x="464" />
<glyph unicode="&#x20ac;" horiz-adv-x="1175" d="M20 438v197h152q2 63 12 135h-164v197h197q111 547 350 546q10 -2 47 -12l111 -33q299 -88 348 -153q41 -55 43 -131q2 -6 2 -142q0 -41 -20 -79q-39 -33 -88 -33q-90 0 -131 78q-4 8 -19 18q-2 2 -2 49q0 -12 10 211q2 33 -16 61.5t-49 28.5q-154 0 -275 -409h312v-197 h-361q-8 -37 -12 -68l-8 -67h381v-197h-387q25 -283 243 -282q63 0 184 34.5t183 34.5q20 0 16 -10v-10l33 -17l8 -18q-2 -6 -2 -14q0 -12 17 -25l14 -10q0 -8 -68 -35q-184 -72 -307 -72q-532 0 -596 424h-158z" />
<glyph unicode="&#x2122;" horiz-adv-x="1720" d="M-4 1333q0 41 301 41h45q129 0 201 -6q168 -14 168 -65q0 -31 -111 -39q-123 -8 -143 -23q-45 -233 -45 -459q0 10 12 -118q2 -20 2 -35q0 -41 -49 -41q-86 0 -152 8l-12 18q27 78 27 226v96q0 12 -2 27v139q0 90 -15 139q-16 10 -119 33q-84 18 -108 59zM758 631 q0 94 6 209l12 209q2 57 2 116q0 27 -12 174l16 31q23 8 78 8h25q172 0 205 -51l-11 -106q-4 -45 40 -199t71 -170q47 39 119 235q70 188 69 263q0 39 113 39h106q57 0 74 -43q-37 -182 -37 -439v-65q0 -29 2 -88.5t2 -87.5v-64q0 -31 -51 -31q-53 0 -114 17q-18 20 -19 176 q0 111 10 342q-20 -37 -71 -135q-78 -156 -78 -248l-17 -29q-55 -20 -102 -20q-59 0 -109 12q-37 43 -65 158q-63 250 -78 274q-16 -82 -16 -196q0 -51 5 -154.5t5 -155.5q0 -35 -86 -34q-29 0 -57 12q-37 16 -37 41z" />
<glyph unicode="&#xe000;" horiz-adv-x="911" d="M0 0v911h911v-911h-911z" />
</font>
</defs>
</svg>
